  0
SECTION
  2
HEADER
  9
$ACADVER
  1
AC1024
  9
$ACADMAINTVER
 70
6
  9
$DWGCODEPAGE
  3
ANSI_1252
  9
$LASTSAVEDBY
  1
ezdxf
  9
$INSBASE
 10
0.0
 20
0.0
 30
0.0
  9
$EXTMIN
 10
1e+20
 20
1e+20
 30
1e+20
  9
$EXTMAX
 10
-1e+20
 20
-1e+20
 30
-1e+20
  9
$LIMMIN
 10
0.0
 20
0.0
  9
$LIMMAX
 10
420.0
 20
297.0
  9
$ORTHOMODE
 70
0
  9
$REGENMODE
 70
1
  9
$FILLMODE
 70
1
  9
$QTEXTMODE
 70
0
  9
$MIRRTEXT
 70
1
  9
$LTSCALE
 40
1.0
  9
$ATTMODE
 70
1
  9
$TEXTSIZE
 40
2.5
  9
$TRACEWID
 40
1.0
  9
$TEXTSTYLE
  7
OpenSans
  9
$CLAYER
  8
0
  9
$CELTYPE
  6
ByLayer
  9
$CECOLOR
 62
256
  9
$CELTSCALE
 40
1.0
  9
$DISPSILH
 70
0
  9
$DIMSCALE
 40
1.0
  9
$DIMASZ
 40
0.175
  9
$DIMEXO
 40
0.125
  9
$DIMDLI
 40
3.75
  9
$DIMRND
 40
0.0
  9
$DIMDLE
 40
0.0
  9
$DIMEXE
 40
0.375
  9
$DIMTP
 40
0.0
  9
$DIMTM
 40
0.0
  9
$DIMTXT
 40
0.25
  9
$DIMCEN
 40
2.5
  9
$DIMTSZ
 40
0.0
  9
$DIMTOL
 70
0
  9
$DIMLIM
 70
0
  9
$DIMTIH
 70
0
  9
$DIMTOH
 70
0
  9
$DIMSE1
 70
0
  9
$DIMSE2
 70
0
  9
$DIMTAD
 70
1
  9
$DIMZIN
 70
12
  9
$DIMBLK
  1
ARCHTICK
  9
$DIMASO
 70
1
  9
$DIMSHO
 70
1
  9
$DIMPOST
  1

  9
$DIMAPOST
  1

  9
$DIMALT
 70
0
  9
$DIMALTD
 70
3
  9
$DIMALTF
 40
0.03937007874
  9
$DIMLFAC
 40
100.0
  9
$DIMTOFL
 70
1
  9
$DIMTVP
 40
0.0
  9
$DIMTIX
 70
0
  9
$DIMSOXD
 70
0
  9
$DIMSAH
 70
0
  9
$DIMBLK1
  1

  9
$DIMBLK2
  1

  9
$DIMSTYLE
  2
EZDXF
  9
$DIMCLRD
 70
0
  9
$DIMCLRE
 70
0
  9
$DIMCLRT
 70
0
  9
$DIMTFAC
 40
0.5
  9
$DIMGAP
 40
0.1
  9
$DIMJUST
 70
0
  9
$DIMSD1
 70
0
  9
$DIMSD2
 70
0
  9
$DIMTOLJ
 70
0
  9
$DIMTZIN
 70
8
  9
$DIMALTZ
 70
0
  9
$DIMALTTZ
 70
0
  9
$DIMUPT
 70
1
  9
$DIMDEC
 70
2
  9
$DIMTDEC
 70
2
  9
$DIMALTU
 70
2
  9
$DIMALTTD
 70
3
  9
$DIMTXSTY
  7
OpenSansCondensed-Light
  9
$DIMAUNIT
 70
0
  9
$DIMADEC
 70
2
  9
$DIMALTRND
 40
0.0
  9
$DIMAZIN
 70
3
  9
$DIMDSEP
 70
46
  9
$DIMATFIT
 70
3
  9
$DIMFRAC
 70
0
  9
$DIMLDRBLK
  1

  9
$DIMLUNIT
 70
2
  9
$DIMLWD
 70
-2
  9
$DIMLWE
 70
-2
  9
$DIMTMOVE
 70
2
  9
$DIMFXL
 40
1.0
  9
$DIMFXLON
 70
0
  9
$DIMJOGANG
 40
0.785398163397
  9
$DIMTFILL
 70
0
  9
$DIMTFILLCLR
 70
0
  9
$DIMARCSYM
 70
0
  9
$DIMLTYPE
  6

  9
$DIMLTEX1
  6

  9
$DIMLTEX2
  6

  9
$DIMTXTDIRECTION
 70
0
  9
$LUNITS
 70
2
  9
$LUPREC
 70
4
  9
$SKETCHINC
 40
1.0
  9
$FILLETRAD
 40
10.0
  9
$AUNITS
 70
0
  9
$AUPREC
 70
2
  9
$MENU
  1
.
  9
$ELEVATION
 40
0.0
  9
$PELEVATION
 40
0.0
  9
$THICKNESS
 40
0.0
  9
$LIMCHECK
 70
0
  9
$CHAMFERA
 40
0.0
  9
$CHAMFERB
 40
0.0
  9
$CHAMFERC
 40
0.0
  9
$CHAMFERD
 40
0.0
  9
$SKPOLY
 70
0
  9
$TDCREATE
 40
2461265.435810185
  9
$TDUCREATE
 40
2458532.153996898
  9
$TDUPDATE
 40
2461265.435810185
  9
$TDUUPDATE
 40
2458532.1544311
  9
$TDINDWG
 40
0.0
  9
$TDUSRTIMER
 40
0.0
  9
$USRTIMER
 70
1
  9
$ANGBASE
 50
0.0
  9
$ANGDIR
 70
0
  9
$PDMODE
 70
0
  9
$PDSIZE
 40
0.0
  9
$PLINEWID
 40
0.0
  9
$SPLFRAME
 70
0
  9
$SPLINETYPE
 70
6
  9
$SPLINESEGS
 70
8
  9
$HANDSEED
  5
DF
  9
$SURFTAB1
 70
6
  9
$SURFTAB2
 70
6
  9
$SURFTYPE
 70
6
  9
$SURFU
 70
6
  9
$SURFV
 70
6
  9
$UCSBASE
  2

  9
$UCSNAME
  2

  9
$UCSORG
 10
0.0
 20
0.0
 30
0.0
  9
$UCSXDIR
 10
1.0
 20
0.0
 30
0.0
  9
$UCSYDIR
 10
0.0
 20
1.0
 30
0.0
  9
$UCSORTHOREF
  2

  9
$UCSORTHOVIEW
 70
0
  9
$UCSORGTOP
 10
0.0
 20
0.0
 30
0.0
  9
$UCSORGBOTTOM
 10
0.0
 20
0.0
 30
0.0
  9
$UCSORGLEFT
 10
0.0
 20
0.0
 30
0.0
  9
$UCSORGRIGHT
 10
0.0
 20
0.0
 30
0.0
  9
$UCSORGFRONT
 10
0.0
 20
0.0
 30
0.0
  9
$UCSORGBACK
 10
0.0
 20
0.0
 30
0.0
  9
$PUCSBASE
  2

  9
$PUCSNAME
  2

  9
$PUCSORG
 10
0.0
 20
0.0
 30
0.0
  9
$PUCSXDIR
 10
1.0
 20
0.0
 30
0.0
  9
$PUCSYDIR
 10
0.0
 20
1.0
 30
0.0
  9
$PUCSORTHOREF
  2

  9
$PUCSORTHOVIEW
 70
0
  9
$PUCSORGTOP
 10
0.0
 20
0.0
 30
0.0
  9
$PUCSORGBOTTOM
 10
0.0
 20
0.0
 30
0.0
  9
$PUCSORGLEFT
 10
0.0
 20
0.0
 30
0.0
  9
$PUCSORGRIGHT
 10
0.0
 20
0.0
 30
0.0
  9
$PUCSORGFRONT
 10
0.0
 20
0.0
 30
0.0
  9
$PUCSORGBACK
 10
0.0
 20
0.0
 30
0.0
  9
$USERI1
 70
0
  9
$USERI2
 70
0
  9
$USERI3
 70
0
  9
$USERI4
 70
0
  9
$USERI5
 70
0
  9
$USERR1
 40
0.0
  9
$USERR2
 40
0.0
  9
$USERR3
 40
0.0
  9
$USERR4
 40
0.0
  9
$USERR5
 40
0.0
  9
$WORLDVIEW
 70
1
  9
$SHADEDGE
 70
3
  9
$SHADEDIF
 70
70
  9
$TILEMODE
 70
1
  9
$MAXACTVP
 70
64
  9
$PINSBASE
 10
0.0
 20
0.0
 30
0.0
  9
$PLIMCHECK
 70
0
  9
$PEXTMIN
 10
1e+20
 20
1e+20
 30
1e+20
  9
$PEXTMAX
 10
-1e+20
 20
-1e+20
 30
-1e+20
  9
$PLIMMIN
 10
0.0
 20
0.0
  9
$PLIMMAX
 10
420.0
 20
297.0
  9
$UNITMODE
 70
0
  9
$VISRETAIN
 70
1
  9
$PLINEGEN
 70
0
  9
$PSLTSCALE
 70
1
  9
$TREEDEPTH
 70
3020
  9
$CMLSTYLE
  2
Standard
  9
$CMLJUST
 70
0
  9
$CMLSCALE
 40
20.0
  9
$PROXYGRAPHICS
 70
1
  9
$MEASUREMENT
 70
1
  9
$CELWEIGHT
370
-1
  9
$ENDCAPS
280
0
  9
$JOINSTYLE
280
0
  9
$LWDISPLAY
290
0
  9
$INSUNITS
 70
6
  9
$HYPERLINKBASE
  1

  9
$STYLESHEET
  1

  9
$XEDIT
290
1
  9
$CEPSNTYPE
380
0
  9
$PSTYLEMODE
290
1
  9
$FINGERPRINTGUID
  2
{1EC4667C-2AA9-4A31-A7D2-C84B6F1C084F}
  9
$VERSIONGUID
  2
{45BC105E-5307-4727-A444-363149519394}
  9
$EXTNAMES
290
1
  9
$PSVPSCALE
 40
0.0
  9
$OLESTARTUP
290
0
  9
$SORTENTS
280
127
  9
$INDEXCTL
280
0
  9
$HIDETEXT
280
1
  9
$XCLIPFRAME
280
1
  9
$HALOGAP
280
0
  9
$OBSCOLOR
 70
257
  9
$OBSLTYPE
280
0
  9
$INTERSECTIONDISPLAY
280
0
  9
$INTERSECTIONCOLOR
 70
257
  9
$DIMASSOC
280
2
  9
$PROJECTNAME
  1

  9
$CAMERADISPLAY
290
0
  9
$LENSLENGTH
 40
50.0
  9
$CAMERAHEIGHT
 40
0.0
  9
$STEPSPERSEC
 40
24.0
  9
$STEPSIZE
 40
100.0
  9
$3DDWFPREC
 40
2.0
  9
$PSOLWIDTH
 40
0.005
  9
$PSOLHEIGHT
 40
0.08
  9
$LOFTANG1
 40
1.570796326795
  9
$LOFTANG2
 40
1.570796326795
  9
$LOFTMAG1
 40
0.0
  9
$LOFTMAG2
 40
0.0
  9
$LOFTPARAM
 70
7
  9
$LOFTNORMALS
280
1
  9
$LATITUDE
 40
37.795
  9
$LONGITUDE
 40
-122.394
  9
$NORTHDIRECTION
 40
0.0
  9
$TIMEZONE
 70
-8000
  9
$LIGHTGLYPHDISPLAY
280
1
  9
$TILEMODELIGHTSYNCH
280
1
  9
$CMATERIAL
347
20
  9
$SOLIDHIST
280
0
  9
$SHOWHIST
280
1
  9
$DWFFRAME
280
2
  9
$DGNFRAME
280
2
  9
$REALWORLDSCALE
290
1
  9
$INTERFERECOLOR
 62
256
  9
$CSHADOW
280
0
  9
$SHADOWPLANELOCATION
 40
0.0
  0
ENDSEC
  0
SECTION
  2
CLASSES
  0
CLASS
  1
ACDBDICTIONARYWDFLT
  2
AcDbDictionaryWithDefault
  3
ObjectDBX Classes
 90
0
 91
0
280
0
281
0
  0
CLASS
  1
SUN
  2
AcDbSun
  3
SCENEOE
 90
1153
 91
0
280
0
281
0
  0
CLASS
  1
VISUALSTYLE
  2
AcDbVisualStyle
  3
ObjectDBX Classes
 90
4095
 91
0
280
0
281
0
  0
CLASS
  1
MATERIAL
  2
AcDbMaterial
  3
ObjectDBX Classes
 90
1153
 91
0
280
0
281
0
  0
CLASS
  1
SCALE
  2
AcDbScale
  3
ObjectDBX Classes
 90
1153
 91
0
280
0
281
0
  0
CLASS
  1
TABLESTYLE
  2
AcDbTableStyle
  3
ObjectDBX Classes
 90
4095
 91
0
280
0
281
0
  0
CLASS
  1
MLEADERSTYLE
  2
AcDbMLeaderStyle
  3
ACDB_MLEADERSTYLE_CLASS
 90
4095
 91
0
280
0
281
0
  0
CLASS
  1
DICTIONARYVAR
  2
AcDbDictionaryVar
  3
ObjectDBX Classes
 90
0
 91
0
280
0
281
0
  0
CLASS
  1
CELLSTYLEMAP
  2
AcDbCellStyleMap
  3
ObjectDBX Classes
 90
1152
 91
0
280
0
281
0
  0
CLASS
  1
MENTALRAYRENDERSETTINGS
  2
AcDbMentalRayRenderSettings
  3
SCENEOE
 90
1024
 91
0
280
0
281
0
  0
CLASS
  1
ACDBDETAILVIEWSTYLE
  2
AcDbDetailViewStyle
  3
ObjectDBX Classes
 90
1025
 91
0
280
0
281
0
  0
CLASS
  1
ACDBSECTIONVIEWSTYLE
  2
AcDbSectionViewStyle
  3
ObjectDBX Classes
 90
1025
 91
0
280
0
281
0
  0
CLASS
  1
RASTERVARIABLES
  2
AcDbRasterVariables
  3
ISM
 90
0
 91
0
280
0
281
0
  0
CLASS
  1
ACDBPLACEHOLDER
  2
AcDbPlaceHolder
  3
ObjectDBX Classes
 90
0
 91
0
280
0
281
0
  0
CLASS
  1
LAYOUT
  2
AcDbLayout
  3
ObjectDBX Classes
 90
0
 91
0
280
0
281
0
  0
ENDSEC
  0
SECTION
  2
TABLES
  0
TABLE
  2
VPORT
  5
8
330
0
100
AcDbSymbolTable
 70
1
  0
VPORT
  5
23
330
8
100
AcDbSymbolTableRecord
100
AcDbViewportTableRecord
  2
*Active
 70
0
 10
0.0
 20
0.0
 11
1.0
 21
1.0
 12
0.0
 22
0.0
 13
0.0
 23
0.0
 14
0.5
 24
0.5
 15
0.5
 25
0.5
 16
0.0
 26
0.0
 36
1.0
 17
0.0
 27
0.0
 37
0.0
 40
1000.0
 41
1.34
 42
50.0
 43
0.0
 44
0.0
 50
0.0
 51
0.0
 71
0
 72
1000
 73
1
 74
3
 75
0
 76
0
 77
0
 78
0
281
0
 65
0
146
0.0
  0
ENDTAB
  0
TABLE
  2
LTYPE
  5
2
330
0
100
AcDbSymbolTable
 70
21
  0
LTYPE
  5
24
330
2
100
AcDbSymbolTableRecord
100
AcDbLinetypeTableRecord
  2
ByBlock
 70
0
  3

 72
65
 73
0
 40
0.0
  0
LTYPE
  5
25
330
2
100
AcDbSymbolTableRecord
100
AcDbLinetypeTableRecord
  2
ByLayer
 70
0
  3

 72
65
 73
0
 40
0.0
  0
LTYPE
  5
26
330
2
100
AcDbSymbolTableRecord
100
AcDbLinetypeTableRecord
  2
Continuous
 70
0
  3

 72
65
 73
0
 40
0.0
  0
LTYPE
  5
2F
330
2
100
AcDbSymbolTableRecord
100
AcDbLinetypeTableRecord
  2
CENTER
 70
0
  3
Center ____ _ ____ _ ____ _ ____ _ ____ _ ____
 72
65
 73
4
 40
5.08
 49
3.175
 74
0
 49
-0.635
 74
0
 49
0.635
 74
0
 49
-0.635
 74
0
  0
LTYPE
  5
30
330
2
100
AcDbSymbolTableRecord
100
AcDbLinetypeTableRecord
  2
CENTERX2
 70
0
  3
Center (2x) ________  __  ________  __  ________
 72
65
 73
4
 40
8.89
 49
6.35
 74
0
 49
-0.635
 74
0
 49
1.27
 74
0
 49
-0.635
 74
0
  0
LTYPE
  5
31
330
2
100
AcDbSymbolTableRecord
100
AcDbLinetypeTableRecord
  2
CENTER2
 70
0
  3
Center (.5x) ____ _ ____ _ ____ _ ____ _ ____
 72
65
 73
4
 40
2.54
 49
1.587
 74
0
 49
-0.318
 74
0
 49
0.318
 74
0
 49
-0.318
 74
0
  0
LTYPE
  5
32
330
2
100
AcDbSymbolTableRecord
100
AcDbLinetypeTableRecord
  2
DASHED
 70
0
  3
Dashed __ __ __ __ __ __ __ __ __ __ __ __ __ _
 72
65
 73
2
 40
1.524
 49
1.27
 74
0
 49
-0.254
 74
0
  0
LTYPE
  5
33
330
2
100
AcDbSymbolTableRecord
100
AcDbLinetypeTableRecord
  2
DASHEDX2
 70
0
  3
Dashed (2x) ____  ____  ____  ____  ____  ____
 72
65
 73
2
 40
3.048
 49
2.54
 74
0
 49
-0.508
 74
0
  0
LTYPE
  5
34
330
2
100
AcDbSymbolTableRecord
100
AcDbLinetypeTableRecord
  2
DASHED2
 70
0
  3
Dashed (.5x) _ _ _ _ _ _ _ _ _ _ _ _ _ _
 72
65
 73
2
 40
0.762
 49
0.635
 74
0
 49
-0.127
 74
0
  0
LTYPE
  5
35
330
2
100
AcDbSymbolTableRecord
100
AcDbLinetypeTableRecord
  2
PHANTOM
 70
0
  3
Phantom ______  __  __  ______  __  __  ______
 72
65
 73
6
 40
6.35
 49
3.175
 74
0
 49
-0.635
 74
0
 49
0.635
 74
0
 49
-0.635
 74
0
 49
0.635
 74
0
 49
-0.635
 74
0
  0
LTYPE
  5
36
330
2
100
AcDbSymbolTableRecord
100
AcDbLinetypeTableRecord
  2
PHANTOMX2
 70
0
  3
Phantom (2x)____________    ____    ____    ____________
 72
65
 73
6
 40
10.795
 49
6.35
 74
0
 49
-0.635
 74
0
 49
1.27
 74
0
 49
-0.635
 74
0
 49
1.27
 74
0
 49
-0.635
 74
0
  0
LTYPE
  5
37
330
2
100
AcDbSymbolTableRecord
100
AcDbLinetypeTableRecord
  2
PHANTOM2
 70
0
  3
Phantom (.5x) ___ _ _ ___ _ _ ___ _ _ ___ _ _ ___
 72
65
 73
6
 40
3.175
 49
1.587
 74
0
 49
-0.318
 74
0
 49
0.318
 74
0
 49
-0.318
 74
0
 49
0.318
 74
0
 49
-0.318
 74
0
  0
LTYPE
  5
38
330
2
100
AcDbSymbolTableRecord
100
AcDbLinetypeTableRecord
  2
DASHDOT
 70
0
  3
Dash dot __ . __ . __ . __ . __ . __ . __ . __
 72
65
 73
4
 40
3.556
 49
2.54
 74
0
 49
-0.508
 74
0
 49
0.0
 74
0
 49
-0.508
 74
0
  0
LTYPE
  5
39
330
2
100
AcDbSymbolTableRecord
100
AcDbLinetypeTableRecord
  2
DASHDOTX2
 70
0
  3
Dash dot (2x) ____  .  ____  .  ____  .  ____
 72
65
 73
4
 40
6.096
 49
5.08
 74
0
 49
-0.508
 74
0
 49
0.0
 74
0
 49
-0.508
 74
0
  0
LTYPE
  5
3A
330
2
100
AcDbSymbolTableRecord
100
AcDbLinetypeTableRecord
  2
DASHDOT2
 70
0
  3
Dash dot (.5x) _ . _ . _ . _ . _ . _ . _ . _
 72
65
 73
4
 40
1.778
 49
1.27
 74
0
 49
-0.254
 74
0
 49
0.0
 74
0
 49
-0.254
 74
0
  0
LTYPE
  5
3B
330
2
100
AcDbSymbolTableRecord
100
AcDbLinetypeTableRecord
  2
DOT
 70
0
  3
Dot .  .  .  .  .  .  .  .  .  .  .  .  .  .  .  .
 72
65
 73
2
 40
0.508
 49
0.0
 74
0
 49
-0.508
 74
0
  0
LTYPE
  5
3C
330
2
100
AcDbSymbolTableRecord
100
AcDbLinetypeTableRecord
  2
DOTX2
 70
0
  3
Dot (2x) .    .    .    .    .    .    .    . 
 72
65
 73
2
 40
1.016
 49
0.0
 74
0
 49
-1.016
 74
0
  0
LTYPE
  5
3D
330
2
100
AcDbSymbolTableRecord
100
AcDbLinetypeTableRecord
  2
DOT2
 70
0
  3
Dot (.5) . . . . . . . . . . . . . . . . . . . 
 72
65
 73
2
 40
0.254
 49
0.0
 74
0
 49
-0.254
 74
0
  0
LTYPE
  5
3E
330
2
100
AcDbSymbolTableRecord
100
AcDbLinetypeTableRecord
  2
DIVIDE
 70
0
  3
Divide __ . . __ . . __ . . __ . . __ . . __
 72
65
 73
6
 40
4.064
 49
2.54
 74
0
 49
-0.508
 74
0
 49
0.0
 74
0
 49
-0.508
 74
0
 49
0.0
 74
0
 49
-0.508
 74
0
  0
LTYPE
  5
3F
330
2
100
AcDbSymbolTableRecord
100
AcDbLinetypeTableRecord
  2
DIVIDEX2
 70
0
  3
Divide (2x) ____  . .  ____  . .  ____  . .  ____
 72
65
 73
6
 40
6.604
 49
5.08
 74
0
 49
-0.508
 74
0
 49
0.0
 74
0
 49
-0.508
 74
0
 49
0.0
 74
0
 49
-0.508
 74
0
  0
LTYPE
  5
40
330
2
100
AcDbSymbolTableRecord
100
AcDbLinetypeTableRecord
  2
DIVIDE2
 70
0
  3
Divide(.5x) _ . _ . _ . _ . _ . _ . _ . _
 72
65
 73
6
 40
2.032
 49
1.27
 74
0
 49
-0.254
 74
0
 49
0.0
 74
0
 49
-0.254
 74
0
 49
0.0
 74
0
 49
-0.254
 74
0
  0
ENDTAB
  0
TABLE
  2
LAYER
  5
1
330
0
100
AcDbSymbolTable
 70
13
  0
LAYER
  5
27
330
1
100
AcDbSymbolTableRecord
100
AcDbLayerTableRecord
  2
0
 70
0
 62
7
  6
Continuous
370
-3
390
13
347
21
  0
LAYER
  5
28
330
1
100
AcDbSymbolTableRecord
100
AcDbLayerTableRecord
  2
Defpoints
 70
0
 62
7
  6
Continuous
290
0
370
-3
390
13
347
21
  0
LAYER
  5
8A
330
1
100
AcDbSymbolTableRecord
100
AcDbLayerTableRecord
  2
CONDUCTOR
 70
0
 62
1
  6
CONTINUOUS
370
-3
390
13
347
21
  0
LAYER
  5
8B
330
1
100
AcDbSymbolTableRecord
100
AcDbLayerTableRecord
  2
INSULATORS
 70
0
 62
5
  6
CONTINUOUS
370
-3
390
13
347
21
  0
LAYER
  5
8C
330
1
100
AcDbSymbolTableRecord
100
AcDbLayerTableRecord
  2
SUPPORTS
 70
0
 62
2
  6
CONTINUOUS
370
-3
390
13
347
21
  0
LAYER
  5
8D
330
1
100
AcDbSymbolTableRecord
100
AcDbLayerTableRecord
  2
ATTACHMENTS
 70
0
 62
4
  6
CONTINUOUS
370
-3
390
13
347
21
  0
LAYER
  5
8E
330
1
100
AcDbSymbolTableRecord
100
AcDbLayerTableRecord
  2
CHORD_AB
 70
0
 62
8
  6
DASHED
370
-3
390
13
347
21
  0
LAYER
  5
8F
330
1
100
AcDbSymbolTableRecord
100
AcDbLayerTableRecord
  2
SAG
 70
0
 62
6
  6
DASHED
370
-3
390
13
347
21
  0
LAYER
  5
90
330
1
100
AcDbSymbolTableRecord
100
AcDbLayerTableRecord
  2
CHARACTERISTIC_POINTS
 70
0
 62
30
  6
CONTINUOUS
370
-3
390
13
347
21
  0
LAYER
  5
91
330
1
100
AcDbSymbolTableRecord
100
AcDbLayerTableRecord
  2
IDEALIZED
 70
0
 62
3
  6
DASHED
370
-3
390
13
347
21
  0
LAYER
  5
92
330
1
100
AcDbSymbolTableRecord
100
AcDbLayerTableRecord
  2
IDEALIZED_POINTS
 70
0
 62
3
  6
CONTINUOUS
370
-3
390
13
347
21
  0
LAYER
  5
93
330
1
100
AcDbSymbolTableRecord
100
AcDbLayerTableRecord
  2
ANNOTATIONS
 70
0
 62
7
  6
CONTINUOUS
370
-3
390
13
347
21
  0
LAYER
  5
94
330
1
100
AcDbSymbolTableRecord
100
AcDbLayerTableRecord
  2
POINT_LEGEND
 70
0
 62
7
  6
CONTINUOUS
370
-3
390
13
347
21
  0
ENDTAB
  0
TABLE
  2
STYLE
  5
5
330
0
100
AcDbSymbolTable
 70
26
  0
STYLE
  5
29
330
5
100
AcDbSymbolTableRecord
100
AcDbTextStyleTableRecord
  2
Standard
 70
0
 40
0.0
 41
1.0
 50
0.0
 71
0
 42
2.5
  3
txt
  4

  0
STYLE
  5
41
330
5
100
AcDbSymbolTableRecord
100
AcDbTextStyleTableRecord
  2
OpenSans-Light
 70
0
 40
0.0
 41
1.0
 50
0.0
 71
0
 42
2.5
  3
OpenSans-Light.ttf
  4

  0
STYLE
  5
42
330
5
100
AcDbSymbolTableRecord
100
AcDbTextStyleTableRecord
  2
OpenSans-Light-Italic
 70
0
 40
0.0
 41
1.0
 50
0.0
 71
0
 42
2.5
  3
OpenSans-LightItalic.ttf
  4

  0
STYLE
  5
43
330
5
100
AcDbSymbolTableRecord
100
AcDbTextStyleTableRecord
  2
OpenSans
 70
0
 40
0.0
 41
1.0
 50
0.0
 71
0
 42
2.5
  3
OpenSans-Regular.ttf
  4

  0
STYLE
  5
44
330
5
100
AcDbSymbolTableRecord
100
AcDbTextStyleTableRecord
  2
OpenSans-Italic
 70
0
 40
0.0
 41
1.0
 50
0.0
 71
0
 42
2.5
  3
OpenSans-Italic.ttf
  4

  0
STYLE
  5
45
330
5
100
AcDbSymbolTableRecord
100
AcDbTextStyleTableRecord
  2
OpenSans-SemiBold
 70
0
 40
0.0
 41
1.0
 50
0.0
 71
0
 42
2.5
  3
OpenSans-SemiBold.ttf
  4

  0
STYLE
  5
46
330
5
100
AcDbSymbolTableRecord
100
AcDbTextStyleTableRecord
  2
OpenSans-SemiBoldItalic
 70
0
 40
0.0
 41
1.0
 50
0.0
 71
0
 42
2.5
  3
OpenSans-SemiBoldItalic.ttf
  4

  0
STYLE
  5
47
330
5
100
AcDbSymbolTableRecord
100
AcDbTextStyleTableRecord
  2
OpenSans-Bold
 70
0
 40
0.0
 41
1.0
 50
0.0
 71
0
 42
2.5
  3
OpenSans-Bold.ttf
  4

  0
STYLE
  5
48
330
5
100
AcDbSymbolTableRecord
100
AcDbTextStyleTableRecord
  2
OpenSans-BoldItalic
 70
0
 40
0.0
 41
1.0
 50
0.0
 71
0
 42
2.5
  3
OpenSans-BoldItalic.ttf
  4

  0
STYLE
  5
49
330
5
100
AcDbSymbolTableRecord
100
AcDbTextStyleTableRecord
  2
OpenSans-ExtraBold
 70
0
 40
0.0
 41
1.0
 50
0.0
 71
0
 42
2.5
  3
OpenSans-ExtraBold.ttf
  4

  0
STYLE
  5
4A
330
5
100
AcDbSymbolTableRecord
100
AcDbTextStyleTableRecord
  2
OpenSans-ExtraBoldItalic
 70
0
 40
0.0
 41
1.0
 50
0.0
 71
0
 42
2.5
  3
OpenSans-ExtraBoldItalic.ttf
  4

  0
STYLE
  5
4B
330
5
100
AcDbSymbolTableRecord
100
AcDbTextStyleTableRecord
  2
OpenSansCondensed-Bold
 70
0
 40
0.0
 41
1.0
 50
0.0
 71
0
 42
2.5
  3
OpenSansCondensed-Bold.ttf
  4

  0
STYLE
  5
4C
330
5
100
AcDbSymbolTableRecord
100
AcDbTextStyleTableRecord
  2
OpenSansCondensed-Light
 70
0
 40
0.0
 41
1.0
 50
0.0
 71
0
 42
2.5
  3
OpenSansCondensed-Light.ttf
  4

  0
STYLE
  5
4D
330
5
100
AcDbSymbolTableRecord
100
AcDbTextStyleTableRecord
  2
OpenSansCondensed-Italic
 70
0
 40
0.0
 41
1.0
 50
0.0
 71
0
 42
2.5
  3
OpenSansCondensed-LightItalic.ttf
  4

  0
STYLE
  5
4E
330
5
100
AcDbSymbolTableRecord
100
AcDbTextStyleTableRecord
  2
LiberationSans
 70
0
 40
0.0
 41
1.0
 50
0.0
 71
0
 42
2.5
  3
LiberationSans-Regular.ttf
  4

  0
STYLE
  5
4F
330
5
100
AcDbSymbolTableRecord
100
AcDbTextStyleTableRecord
  2
LiberationSans-Bold
 70
0
 40
0.0
 41
1.0
 50
0.0
 71
0
 42
2.5
  3
LiberationSans-Bold.ttf
  4

  0
STYLE
  5
50
330
5
100
AcDbSymbolTableRecord
100
AcDbTextStyleTableRecord
  2
LiberationSans-BoldItalic
 70
0
 40
0.0
 41
1.0
 50
0.0
 71
0
 42
2.5
  3
LiberationSans-BoldItalic.ttf
  4

  0
STYLE
  5
51
330
5
100
AcDbSymbolTableRecord
100
AcDbTextStyleTableRecord
  2
LiberationSans-Italic
 70
0
 40
0.0
 41
1.0
 50
0.0
 71
0
 42
2.5
  3
LiberationSans-Italic.ttf
  4

  0
STYLE
  5
52
330
5
100
AcDbSymbolTableRecord
100
AcDbTextStyleTableRecord
  2
LiberationSerif
 70
0
 40
0.0
 41
1.0
 50
0.0
 71
0
 42
2.5
  3
LiberationSerif-Regular.ttf
  4

  0
STYLE
  5
53
330
5
100
AcDbSymbolTableRecord
100
AcDbTextStyleTableRecord
  2
LiberationSerif-Bold
 70
0
 40
0.0
 41
1.0
 50
0.0
 71
0
 42
2.5
  3
LiberationSerif-Bold.ttf
  4

  0
STYLE
  5
54
330
5
100
AcDbSymbolTableRecord
100
AcDbTextStyleTableRecord
  2
LiberationSerif-BoldItalic
 70
0
 40
0.0
 41
1.0
 50
0.0
 71
0
 42
2.5
  3
LiberationSerif-BoldItalic.ttf
  4

  0
STYLE
  5
55
330
5
100
AcDbSymbolTableRecord
100
AcDbTextStyleTableRecord
  2
LiberationSerif-Italic
 70
0
 40
0.0
 41
1.0
 50
0.0
 71
0
 42
2.5
  3
LiberationSerif-Italic.ttf
  4

  0
STYLE
  5
56
330
5
100
AcDbSymbolTableRecord
100
AcDbTextStyleTableRecord
  2
LiberationMono
 70
0
 40
0.0
 41
1.0
 50
0.0
 71
0
 42
2.5
  3
LiberationMono-Regular.ttf
  4

  0
STYLE
  5
57
330
5
100
AcDbSymbolTableRecord
100
AcDbTextStyleTableRecord
  2
LiberationMono-Bold
 70
0
 40
0.0
 41
1.0
 50
0.0
 71
0
 42
2.5
  3
LiberationMono-Bold.ttf
  4

  0
STYLE
  5
58
330
5
100
AcDbSymbolTableRecord
100
AcDbTextStyleTableRecord
  2
LiberationMono-BoldItalic
 70
0
 40
0.0
 41
1.0
 50
0.0
 71
0
 42
2.5
  3
LiberationMono-BoldItalic.ttf
  4

  0
STYLE
  5
59
330
5
100
AcDbSymbolTableRecord
100
AcDbTextStyleTableRecord
  2
LiberationMono-Italic
 70
0
 40
0.0
 41
1.0
 50
0.0
 71
0
 42
2.5
  3
LiberationMono-Italic.ttf
  4

  0
ENDTAB
  0
TABLE
  2
VIEW
  5
7
330
0
100
AcDbSymbolTable
 70
0
  0
ENDTAB
  0
TABLE
  2
UCS
  5
6
330
0
100
AcDbSymbolTable
 70
0
  0
ENDTAB
  0
TABLE
  2
APPID
  5
3
330
0
100
AcDbSymbolTable
 70
3
  0
APPID
  5
2A
330
3
100
AcDbSymbolTableRecord
100
AcDbRegAppTableRecord
  2
ACAD
 70
0
  0
APPID
  5
DC
330
3
100
AcDbSymbolTableRecord
100
AcDbRegAppTableRecord
  2
HATCHBACKGROUNDCOLOR
 70
0
  0
APPID
  5
DD
330
3
100
AcDbSymbolTableRecord
100
AcDbRegAppTableRecord
  2
EZDXF
 70
0
  0
ENDTAB
  0
TABLE
  2
DIMSTYLE
  5
4
330
0
100
AcDbSymbolTable
 70
12
100
AcDbDimStyleTable
  0
DIMSTYLE
105
2B
330
4
100
AcDbSymbolTableRecord
100
AcDbDimStyleTableRecord
  2
Standard
 70
0
 40
1.0
 41
2.5
 42
0.625
 43
3.75
 44
1.25
 45
0.0
 46
0.0
 47
0.0
 48
0.0
 49
2.5
140
2.5
141
2.5
142
0.0
143
0.03937007874
144
1.0
145
0.0
146
1.0
147
0.625
148
0.0
 69
0
 70
0
 71
0
 72
0
 73
0
 74
0
 75
0
 76
0
 77
1
 78
8
 79
3
170
0
171
3
172
1
173
0
174
0
175
0
176
0
177
0
178
0
179
2
271
2
272
2
273
2
274
3
275
0
276
0
277
2
278
44
279
0
280
0
281
0
282
0
283
0
284
8
285
0
286
0
288
0
289
3
290
0
371
-2
372
-2
  0
DIMSTYLE
105
73
330
4
100
AcDbSymbolTableRecord
100
AcDbDimStyleTableRecord
  2
EZDXF
 70
0
 40
1.0
 41
0.175
 42
0.125
 43
3.75
 44
0.375
 45
0.0
 46
0.0
 47
0.0
 48
0.0
 49
2.5
140
0.25
141
2.5
142
0.0
143
0.03937007874
144
100.0
145
0.0
146
0.5
147
0.1
148
0.0
 69
0
 70
0
 71
0
 72
0
 73
0
 74
0
 75
0
 76
0
 77
1
 78
12
 79
3
170
0
171
3
172
1
173
0
174
0
175
0
176
0
177
0
178
0
179
2
271
2
272
2
273
2
274
3
275
0
276
0
277
2
278
46
279
2
280
0
281
0
282
0
283
0
284
8
285
0
286
0
288
1
289
3
290
0
340
4C
342
74
371
-2
372
-2
  0
DIMSTYLE
105
7C
330
4
100
AcDbSymbolTableRecord
100
AcDbDimStyleTableRecord
  2
EZ_M_100_H25_CM
 70
0
 40
1.0
 41
0.25
 42
0.125
 43
3.75
 44
0.375
 45
0.0
 46
0.0
 47
0.0
 48
0.0
 49
2.5
140
0.25
141
2.5
142
0.125
143
0.03937007874
144
100.0
145
0.0
146
0.5
147
0.1
148
0.0
 69
0
 70
0
 71
0
 72
0
 73
0
 74
0
 75
0
 76
0
 77
1
 78
12
 79
3
170
0
171
3
172
1
173
0
174
0
175
0
176
0
177
0
178
0
179
2
271
2
272
2
273
2
274
3
275
0
276
0
277
2
278
46
279
2
280
0
281
0
282
0
283
0
284
8
285
0
286
0
288
1
289
3
290
0
340
4C
371
-2
372
-2
  0
DIMSTYLE
105
7D
330
4
100
AcDbSymbolTableRecord
100
AcDbDimStyleTableRecord
  2
EZ_M_50_H25_CM
 70
0
 40
1.0
 41
0.125
 42
0.0625
 43
3.75
 44
0.1875
 45
0.0
 46
0.0
 47
0.0
 48
0.0
 49
2.5
140
0.125
141
2.5
142
0.0625
143
0.03937007874
144
100.0
145
0.0
146
0.5
147
0.05
148
0.0
 69
0
 70
0
 71
0
 72
0
 73
0
 74
0
 75
0
 76
0
 77
1
 78
12
 79
3
170
0
171
3
172
1
173
0
174
0
175
0
176
0
177
0
178
0
179
2
271
2
272
2
273
2
274
3
275
0
276
0
277
2
278
46
279
2
280
0
281
0
282
0
283
0
284
8
285
0
286
0
288
1
289
3
290
0
340
4C
371
-2
372
-2
  0
DIMSTYLE
105
7E
330
4
100
AcDbSymbolTableRecord
100
AcDbDimStyleTableRecord
  2
EZ_M_25_H25_CM
 70
0
 40
1.0
 41
0.0625
 42
0.03125
 43
3.75
 44
0.09375
 45
0.0
 46
0.0
 47
0.0
 48
0.0
 49
2.5
140
0.0625
141
2.5
142
0.03125
143
0.03937007874
144
100.0
145
0.0
146
0.5
147
0.025
148
0.0
 69
0
 70
0
 71
0
 72
0
 73
0
 74
0
 75
0
 76
0
 77
1
 78
12
 79
3
170
0
171
3
172
1
173
0
174
0
175
0
176
0
177
0
178
0
179
2
271
2
272
2
273
2
274
3
275
0
276
0
277
2
278
46
279
2
280
0
281
0
282
0
283
0
284
8
285
0
286
0
288
1
289
3
290
0
340
4C
371
-2
372
-2
  0
DIMSTYLE
105
7F
330
4
100
AcDbSymbolTableRecord
100
AcDbDimStyleTableRecord
  2
EZ_M_20_H25_CM
 70
0
 40
1.0
 41
0.05
 42
0.025
 43
3.75
 44
0.07500000000000001
 45
0.0
 46
0.0
 47
0.0
 48
0.0
 49
2.5
140
0.05
141
2.5
142
0.025
143
0.03937007874
144
100.0
145
0.0
146
0.5
147
0.020000000000000004
148
0.0
 69
0
 70
0
 71
0
 72
0
 73
0
 74
0
 75
0
 76
0
 77
1
 78
12
 79
3
170
0
171
3
172
1
173
0
174
0
175
0
176
0
177
0
178
0
179
2
271
2
272
2
273
2
274
3
275
0
276
0
277
2
278
46
279
2
280
0
281
0
282
0
283
0
284
8
285
0
286
0
288
1
289
3
290
0
340
4C
371
-2
372
-2
  0
DIMSTYLE
105
80
330
4
100
AcDbSymbolTableRecord
100
AcDbDimStyleTableRecord
  2
EZ_M_10_H25_CM
 70
0
 40
1.0
 41
0.025
 42
0.0125
 43
3.75
 44
0.037500000000000006
 45
0.0
 46
0.0
 47
0.0
 48
0.0
 49
2.5
140
0.025
141
2.5
142
0.0125
143
0.03937007874
144
100.0
145
0.0
146
0.5
147
0.010000000000000002
148
0.0
 69
0
 70
0
 71
0
 72
0
 73
0
 74
0
 75
0
 76
0
 77
1
 78
12
 79
3
170
0
171
3
172
1
173
0
174
0
175
0
176
0
177
0
178
0
179
2
271
2
272
2
273
2
274
3
275
0
276
0
277
2
278
46
279
2
280
0
281
0
282
0
283
0
284
8
285
0
286
0
288
1
289
3
290
0
340
4C
371
-2
372
-2
  0
DIMSTYLE
105
81
330
4
100
AcDbSymbolTableRecord
100
AcDbDimStyleTableRecord
  2
EZ_M_5_H25_CM
 70
0
 40
1.0
 41
0.0125
 42
0.00625
 43
3.75
 44
0.018750000000000003
 45
0.0
 46
0.0
 47
0.0
 48
0.0
 49
2.5
140
0.0125
141
2.5
142
0.00625
143
0.03937007874
144
100.0
145
0.0
146
0.5
147
0.005000000000000001
148
0.0
 69
0
 70
0
 71
0
 72
0
 73
0
 74
0
 75
0
 76
0
 77
1
 78
12
 79
3
170
0
171
3
172
1
173
0
174
0
175
0
176
0
177
0
178
0
179
2
271
2
272
2
273
2
274
3
275
0
276
0
277
2
278
46
279
2
280
0
281
0
282
0
283
0
284
8
285
0
286
0
288
1
289
3
290
0
340
4C
371
-2
372
-2
  0
DIMSTYLE
105
82
330
4
100
AcDbSymbolTableRecord
100
AcDbDimStyleTableRecord
  2
EZ_M_1_H25_CM
 70
0
 40
1.0
 41
0.0025
 42
0.00125
 43
3.75
 44
0.00375
 45
0.0
 46
0.0
 47
0.0
 48
0.0
 49
2.5
140
0.0025
141
2.5
142
0.00125
143
0.03937007874
144
100.0
145
0.0
146
0.5
147
0.001
148
0.0
 69
0
 70
0
 71
0
 72
0
 73
0
 74
0
 75
0
 76
0
 77
1
 78
12
 79
3
170
0
171
3
172
1
173
0
174
0
175
0
176
0
177
0
178
0
179
2
271
2
272
2
273
2
274
3
275
0
276
0
277
2
278
46
279
2
280
0
281
0
282
0
283
0
284
8
285
0
286
0
288
1
289
3
290
0
340
4C
371
-2
372
-2
  0
DIMSTYLE
105
83
330
4
100
AcDbSymbolTableRecord
100
AcDbDimStyleTableRecord
  2
EZ_RADIUS
 70
0
 40
1.0
 41
0.25
 42
0.125
 43
3.75
 44
0.375
 45
0.0
 46
0.0
 47
0.0
 48
0.0
 49
2.5
140
0.25
141
0.0
142
0.0
143
0.03937007874
144
100.0
145
0.0
146
0.5
147
0.1
148
0.0
 69
0
 70
0
 71
0
 72
0
 73
0
 74
0
 75
0
 76
0
 77
1
 78
12
 79
3
170
0
171
3
172
0
173
0
174
0
175
0
176
0
177
0
178
0
179
2
271
2
272
2
273
2
274
3
275
0
276
0
277
2
278
46
279
1
280
0
281
0
282
0
283
0
284
8
285
0
286
0
288
1
289
3
290
0
340
4C
342
84
371
-2
372
-2
  0
DIMSTYLE
105
88
330
4
100
AcDbSymbolTableRecord
100
AcDbDimStyleTableRecord
  2
EZ_RADIUS_INSIDE
 70
0
 40
1.0
 41
0.25
 42
0.125
 43
3.75
 44
0.375
 45
0.0
 46
0.0
 47
0.0
 48
0.0
 49
2.5
140
0.25
141
0.0
142
0.0
143
0.03937007874
144
100.0
145
0.0
146
0.5
147
0.1
148
0.0
 69
0
 70
0
 71
0
 72
0
 73
0
 74
0
 75
0
 76
0
 77
0
 78
12
 79
3
170
0
171
3
172
0
173
0
174
1
175
0
176
0
177
0
178
0
179
2
271
2
272
2
273
2
274
3
275
0
276
0
277
2
278
46
279
0
280
0
281
0
282
0
283
0
284
8
285
0
286
0
288
1
289
0
290
0
340
4C
342
84
371
-2
372
-2
  0
DIMSTYLE
105
89
330
4
100
AcDbSymbolTableRecord
100
AcDbDimStyleTableRecord
  2
EZ_CURVED
 70
0
 40
1.0
 41
0.25
 42
0.125
 43
3.75
 44
0.375
 45
0.0
 46
0.0
 47
0.0
 48
0.0
 49
2.5
140
0.25
141
2.5
142
0.0
143
0.03937007874
144
100.0
145
0.0
146
0.5
147
0.1
148
0.0
 69
0
 70
0
 71
0
 72
0
 73
0
 74
0
 75
0
 76
0
 77
1
 78
12
 79
2
 90
2
170
0
171
3
172
1
173
0
174
0
175
0
176
0
177
0
178
0
179
2
271
2
272
2
273
2
274
3
275
0
276
0
277
2
278
46
279
2
280
0
281
0
282
0
283
0
284
8
285
0
286
0
288
1
289
3
290
0
340
4C
371
-2
372
-2
  0
ENDTAB
  0
TABLE
  2
BLOCK_RECORD
  5
9
330
0
100
AcDbSymbolTable
 70
5
  0
BLOCK_RECORD
  5
17
330
9
100
AcDbSymbolTableRecord
100
AcDbBlockTableRecord
  2
*Model_Space
340
1A
 70
0
280
1
281
0
  0
BLOCK_RECORD
  5
1B
330
9
100
AcDbSymbolTableRecord
100
AcDbBlockTableRecord
  2
*Paper_Space
340
1E
 70
0
280
1
281
0
  0
BLOCK_RECORD
  5
74
330
9
100
AcDbSymbolTableRecord
100
AcDbBlockTableRecord
  2
_ARCHTICK
340
0
 70
0
280
1
281
0
  0
BLOCK_RECORD
  5
78
330
9
100
AcDbSymbolTableRecord
100
AcDbBlockTableRecord
  2
_CLOSEDFILLED
340
0
 70
0
280
1
281
0
  0
BLOCK_RECORD
  5
84
330
9
100
AcDbSymbolTableRecord
100
AcDbBlockTableRecord
  2
_CLOSEDBLANK
340
0
 70
0
280
1
281
0
  0
ENDTAB
  0
ENDSEC
  0
SECTION
  2
BLOCKS
  0
BLOCK
  5
18
330
17
100
AcDbEntity
  8
0
100
AcDbBlockBegin
  2
*Model_Space
 70
0
 10
0.0
 20
0.0
 30
0.0
  3
*Model_Space
  1

  0
ENDBLK
  5
19
330
17
100
AcDbEntity
  8
0
100
AcDbBlockEnd
  0
BLOCK
  5
1C
330
1B
100
AcDbEntity
  8
0
100
AcDbBlockBegin
  2
*Paper_Space
 70
0
 10
0.0
 20
0.0
 30
0.0
  3
*Paper_Space
  1

  0
ENDBLK
  5
1D
330
1B
100
AcDbEntity
  8
0
100
AcDbBlockEnd
  0
BLOCK
  5
75
330
74
100
AcDbEntity
  8
0
100
AcDbBlockBegin
  2
_ARCHTICK
 70
0
 10
0.0
 20
0.0
 30
0.0
  3
_ARCHTICK
  1

  0
LWPOLYLINE
  5
77
330
74
100
AcDbEntity
  8
0
  6
BYBLOCK
 62
0
100
AcDbPolyline
 90
2
 70
0
 43
0.15
 10
-0.5
 20
-0.5
 10
0.5
 20
0.5
  0
ENDBLK
  5
76
330
74
100
AcDbEntity
  8
0
100
AcDbBlockEnd
  0
BLOCK
  5
79
330
78
100
AcDbEntity
  8
0
100
AcDbBlockBegin
  2
_CLOSEDFILLED
 70
0
 10
0.0
 20
0.0
 30
0.0
  3
_CLOSEDFILLED
  1

  0
SOLID
  5
7B
330
78
100
AcDbEntity
  8
0
  6
BYBLOCK
 62
0
100
AcDbTrace
 10
-1.0
 20
0.16439898372402537
 30
0.0
 11
0.0
 21
0.0
 31
0.0
 12
-1.0
 22
-0.16439898372402537
 32
0.0
 13
-1.0
 23
-0.16439898372402537
 33
0.0
  0
ENDBLK
  5
7A
330
78
100
AcDbEntity
  8
0
100
AcDbBlockEnd
  0
BLOCK
  5
85
330
84
100
AcDbEntity
  8
0
100
AcDbBlockBegin
  2
_CLOSEDBLANK
 70
0
 10
0.0
 20
0.0
 30
0.0
  3
_CLOSEDBLANK
  1

  0
LWPOLYLINE
  5
87
330
84
100
AcDbEntity
  8
0
  6
BYBLOCK
 62
0
100
AcDbPolyline
 90
3
 70
1
 10
-1.0
 20
0.16439898372402537
 10
0.0
 20
0.0
 10
-1.0
 20
-0.16439898372402537
  0
ENDBLK
  5
86
330
84
100
AcDbEntity
  8
0
100
AcDbBlockEnd
  0
ENDSEC
  0
SECTION
  2
ENTITIES
  0
LWPOLYLINE
  5
95
330
17
100
AcDbEntity
  8
CONDUCTOR
100
AcDbPolyline
 90
1000
 70
0
 10
1.955994692308649
 20
99.58276533741743
 10
2.0143455098089036
 20
99.5799284590119
 10
2.072696327309158
 20
99.57711652106325
 10
2.1310471448094126
 20
99.57432952305898
 10
2.189397962309667
 20
99.5715674644912
 10
2.2477487798099216
 20
99.56883034485641
 10
2.306099597310176
 20
99.56611816365576
 10
2.364450414810431
 20
99.56343092039491
 10
2.422801232310685
 20
99.56076861458412
 10
2.48115204981094
 20
99.55813124573807
 10
2.539502867311194
 20
99.55551881337614
 10
2.597853684811449
 20
99.55293131702213
 10
2.6562045023117036
 20
99.55036875620443
 10
2.714555319811958
 20
99.54783113045603
 10
2.7729061373122126
 20
99.54531843931439
 10
2.831256954812467
 20
99.54283068232151
 10
2.8896077723127216
 20
99.54036785902404
 10
2.947958589812976
 20
99.53792996897302
 10
3.0063094073132306
 20
99.53551701172414
 10
3.064660224813485
 20
99.53312898683761
 10
3.1230110423137396
 20
99.53076589387815
 10
3.181361859813994
 20
99.52842773241512
 10
3.239712677314249
 20
99.52611450202234
 10
3.298063494814503
 20
99.52382620227813
 10
3.356414312314758
 20
99.52156283276553
 10
3.414765129815012
 20
99.5193243930719
 10
3.473115947315267
 20
99.51711088278931
 10
3.531466764815521
 20
99.51492230151432
 10
3.589817582315776
 20
99.51275864884805
 10
3.6481683998160306
 20
99.5106199243961
 10
3.706519217316285
 20
99.50850612776865
 10
3.7648700348165396
 20
99.5064172585805
 10
3.823220852316794
 20
99.50435331645086
 10
3.8815716698170486
 20
99.50231430100361
 10
3.939922487317303
 20
99.50030021186707
 10
3.9982733048175576
 20
99.49831104867415
 10
4.056624122317812
 20
99.49634681106231
 10
4.114974939818067
 20
99.49440749867357
 10
4.173325757318321
 20
99.49249311115439
 10
4.231676574818575
 20
99.49060364815593
 10
4.29002739231883
 20
99.48873910933376
 10
4.348378209819085
 20
99.48689949434807
 10
4.40672902731934
 20
99.48508480286351
 10
4.465079844819594
 20
99.48329503454941
 10
4.523430662319848
 20
99.48153018907949
 10
4.581781479820103
 20
99.47979026613218
 10
4.640132297320358
 20
99.47807526539025
 10
4.698483114820612
 20
99.47638518654115
 10
4.756833932320866
 20
99.47472002927687
 10
4.815184749821121
 20
99.47307979329388
 10
4.873535567321376
 20
99.47146447829324
 10
4.93188638482163
 20
99.4698740839806
 10
4.990237202321884
 20
99.46830861006599
 10
5.048588019822139
 20
99.46676805626412
 10
5.106938837322394
 20
99.46525242229417
 10
5.165289654822648
 20
99.46376170787998
 10
5.223640472322903
 20
99.46229591274978
 10
5.281991289823157
 20
99.46085503663643
 10
5.340342107323412
 20
99.45943907927735
 10
5.398692924823667
 20
99.45804804041437
 10
5.457043742323921
 20
99.45668191979406
 10
5.515394559824175
 20
99.45534071716732
 10
5.57374537732443
 20
99.45402443228981
 10
5.632096194824685
 20
99.4527330649215
 10
5.690447012324939
 20
99.45146661482717
 10
5.748797829825193
 20
99.45022508177583
 10
5.807148647325448
 20
99.44900846554133
 10
5.865499464825703
 20
99.44781676590183
 10
5.923850282325957
 20
99.44664998264021
 10
5.982201099826212
 20
99.44550811554375
 10
6.040551917326466
 20
99.44439116440434
 10
6.098902734826721
 20
99.44329912901837
 10
6.157253552326975
 20
99.4422320091869
 10
6.21560436982723
 20
99.44118980471534
 10
6.273955187327484
 20
99.44017251541375
 10
6.332306004827739
 20
99.43918014109677
 10
6.390656822327993
 20
99.43821268158344
 10
6.449007639828248
 20
99.43727013669748
 10
6.507358457328502
 20
99.43635250626714
 10
6.565709274828757
 20
99.43545979012514
 10
6.624060092329011
 20
99.43459198810872
 10
6.682410909829266
 20
99.43374910005973
 10
6.740761727329521
 20
99.4329311258246
 10
6.799112544829775
 20
99.4321380652542
 10
6.85746336233003
 20
99.431369918204
 10
6.915814179830284
 20
99.43062668453395
 10
6.974164997330539
 20
99.42990836410861
 10
7.032515814830793
 20
99.42921495679708
 10
7.090866632331048
 20
99.428546462473
 10
7.149217449831302
 20
99.42790288101445
 10
7.207568267331557
 20
99.4272842123042
 10
7.265919084831811
 20
99.42669045622945
 10
7.324269902332066
 20
99.42612161268202
 10
7.38262071983232
 20
99.42557768155815
 10
7.440971537332575
 20
99.42505866275876
 10
7.499322354832829
 20
99.42456455618928
 10
7.557673172333084
 20
99.4240953617596
 10
7.616023989833339
 20
99.42365107938424
 10
7.674374807333593
 20
99.42323170898219
 10
7.732725624833848
 20
99.42283725047703
 10
7.791076442334102
 20
99.42246770379684
 10
7.849427259834357
 20
99.42212306887434
 10
7.907778077334611
 20
99.42180334564664
 10
7.966128894834866
 20
99.42150853405546
 10
8.02447971233512
 20
99.42123863404716
 10
8.082830529835375
 20
99.42099364557247
 10
8.141181347335628
 20
99.42077356858671
 10
8.199532164835883
 20
99.42057840304984
 10
8.257882982336138
 20
99.42040814892628
 10
8.316233799836393
 20
99.42026280618494
 10
8.374584617336648
 20
99.4201423747994
 10
8.432935434836903
 20
99.4200468547477
 10
8.491286252337158
 20
99.41997624601235
 10
8.549637069837411
 20
99.41993054858055
 10
8.607987887337666
 20
99.419909762444
 10
8.66633870483792
 20
99.41991388759884
 10
8.724689522338174
 20
99.41994292404583
 10
8.78304033983843
 20
99.4199968717903
 10
8.841391157338684
 20
99.42007573084213
 10
8.899741974838939
 20
99.42017950121557
 10
8.958092792339194
 20
99.42030818292962
 10
9.016443609839447
 20
99.42046177600768
 10
9.074794427339702
 20
99.42064028047783
 10
9.133145244839955
 20
99.4208436963725
 10
9.19149606234021
 20
99.42107202372883
 10
9.249846879840465
 20
99.42132526258841
 10
9.30819769734072
 20
99.42160341299741
 10
9.366548514840975
 20
99.42190647500651
 10
9.42489933234123
 20
99.42223444867098
 10
9.483250149841485
 20
99.42258733405056
 10
9.541600967341738
 20
99.42296513120961
 10
9.599951784841993
 20
99.42336784021693
 10
9.658302602342246
 20
99.42379546114596
 10
9.716653419842501
 20
99.4242479940746
 10
9.775004237342756
 20
99.42472543908544
 10
9.833355054843011
 20
99.42522779626536
 10
9.891705872343266
 20
99.42575506570601
 10
9.950056689843521
 20
99.42630724750343
 10
10.008407507343776
 20
99.42688434175834
 10
10.066758324844027
 20
99.42748634857584
 10
10.125109142344282
 20
99.42811326806573
 10
10.183459959844537
 20
99.4287651003422
 10
10.241810777344792
 20
99.42944184552412
 10
10.300161594845047
 20
99.43014350373481
 10
10.358512412345302
 20
99.43087007510213
 10
10.416863229845557
 20
99.43162155975854
 10
10.475214047345812
 20
99.43239795784105
 10
10.533564864846067
 20
99.43319926949103
 10
10.591915682346318
 20
99.43402549485468
 10
10.650266499846573
 20
99.4348766340825
 10
10.708617317346828
 20
99.43575268732967
 10
10.766968134847083
 20
99.43665365475583
 10
10.825318952347338
 20
99.4375795365252
 10
10.883669769847593
 20
99.43853033280656
 10
10.942020587347848
 20
99.43950604377316
 10
11.000371404848103
 20
99.44050666960287
 10
11.058722222348354
 20
99.44153221047803
 10
11.11707303984861
 20
99.44258266658564
 10
11.175423857348864
 20
99.44365803811702
 10
11.23377467484912
 20
99.44475832526832
 10
11.292125492349374
 20
99.44588352824
 10
11.350476309849629
 20
99.44703364723715
 10
11.408827127349884
 20
99.44820868246943
 10
11.467177944850139
 20
99.44940863415094
 10
11.525528762350394
 20
99.45063350250045
 10
11.583879579850645
 20
99.45188328774118
 10
11.6422303973509
 20
99.45315799010093
 10
11.700581214851155
 20
99.45445760981202
 10
11.75893203235141
 20
99.4557821471113
 10
11.817282849851665
 20
99.45713160224027
 10
11.87563366735192
 20
99.45850597544477
 10
11.933984484852175
 20
99.45990526697535
 10
11.99233530235243
 20
99.46132947708709
 10
12.050686119852681
 20
99.46277860603955
 10
12.109036937352936
 20
99.4642526540968
 10
12.167387754853191
 20
99.46575162152756
 10
12.225738572353446
 20
99.467275508605
 10
12.284089389853701
 20
99.46882431560688
 10
12.342440207353956
 20
99.47039804281555
 10
12.400791024854211
 20
99.47199669051774
 10
12.459141842354466
 20
99.47362025900487
 10
12.517492659854721
 20
99.47526874857287
 10
12.575843477354972
 20
99.47694215952218
 10
12.634194294855227
 20
99.47864049215782
 10
12.692545112355482
 20
99.48036374678931
 10
12.750895929855737
 20
99.48211192373076
 10
12.809246747355992
 20
99.4838850233008
 10
12.867597564856247
 20
99.48568304582257
 10
12.925948382356502
 20
99.48750599162382
 10
12.984299199856757
 20
99.48935386103675
 10
13.042650017357008
 20
99.4912266543982
 10
13.101000834857263
 20
99.49312437204954
 10
13.159351652357518
 20
99.49504701433658
 10
13.217702469857773
 20
99.49699458160977
 10
13.276053287358028
 20
99.49896707422413
 10
13.334404104858283
 20
99.50096449253913
 10
13.392754922358538
 20
99.50298683691882
 10
13.451105739858793
 20
99.50503410773184
 10
13.509456557359048
 20
99.50710630535129
 10
13.5678073748593
 20
99.50920343015484
 10
13.626158192359554
 20
99.51132548252478
 10
13.68450900985981
 20
99.51347246284784
 10
13.742859827360064
 20
99.51564437151534
 10
13.80121064486032
 20
99.51784120892312
 10
13.859561462360574
 20
99.52006297547162
 10
13.917912279860829
 20
99.5223096715658
 10
13.976263097361084
 20
99.52458129761509
 10
14.034613914861335
 20
99.52687785403351
 10
14.09296473236159
 20
99.52919934123976
 10
14.151315549861845
 20
99.53154575965682
 10
14.2096663673621
 20
99.53391710971245
 10
14.268017184862355
 20
99.53631339183879
 10
14.32636800236261
 20
99.53873460647266
 10
14.384718819862865
 20
99.54118075405533
 10
14.44306963736312
 20
99.54365183503266
 10
14.501420454863375
 20
99.54614784985499
 10
14.559771272363626
 20
99.54866879897726
 10
14.618122089863881
 20
99.55121468285897
 10
14.676472907364136
 20
99.55378550196416
 10
14.734823724864391
 20
99.55638125676133
 10
14.793174542364646
 20
99.55900194772367
 10
14.851525359864901
 20
99.56164757532876
 10
14.909876177365156
 20
99.56431814005886
 10
14.968226994865411
 20
99.56701364240068
 10
15.026577812365666
 20
99.56973408284553
 10
15.084928629865917
 20
99.57247946188922
 10
15.143279447366172
 20
99.57524978003217
 10
15.201630264866427
 20
99.57804503777926
 10
15.259981082366682
 20
99.58086523563996
 10
15.318331899866937
 20
99.58371037412839
 10
15.376682717367192
 20
99.58658045376298
 10
15.435033534867447
 20
99.58947547506692
 10
15.493384352367702
 20
99.59239543856783
 10
15.551735169867953
 20
99.59534034479792
 10
15.610085987368208
 20
99.59831019429394
 10
15.668436804868463
 20
99.6013049875972
 10
15.726787622368718
 20
99.60432472525353
 10
15.785138439868973
 20
99.60736940781327
 10
15.843489257369228
 20
99.61043903583142
 10
15.901840074869483
 20
99.61353360986745
 10
15.960190892369738
 20
99.61665313048537
 10
16.018541709869993
 20
99.61979759825373
 10
16.076892527370244
 20
99.62296701374565
 10
16.1352433448705
 20
99.62616137753888
 10
16.193594162370754
 20
99.62938069021554
 10
16.25194497987101
 20
99.6326249523624
 10
16.310295797371264
 20
99.63589416457084
 10
16.36864661487152
 20
99.63918832743668
 10
16.426997432371774
 20
99.64250744156028
 10
16.48534824987203
 20
99.64585150754665
 10
16.54369906737228
 20
99.6492205260053
 10
16.602049884872535
 20
99.65261449755023
 10
16.66040070237279
 20
99.65603342280001
 10
16.718751519873045
 20
99.65947730237785
 10
16.7771023373733
 20
99.66294613691143
 10
16.835453154873555
 20
99.66643992703293
 10
16.89380397237381
 20
99.66995867337924
 10
16.952154789874065
 20
99.6735023765916
 10
17.01050560737432
 20
99.67707103731597
 10
17.06885642487457
 20
99.68066465620275
 10
17.127207242374826
 20
99.68428323390692
 10
17.18555805987508
 20
99.68792677108802
 10
17.243908877375336
 20
99.69159526841015
 10
17.30225969487559
 20
99.69528872654193
 10
17.360610512375846
 20
99.69900714615649
 10
17.4189613298761
 20
99.70275052793166
 10
17.477312147376356
 20
99.70651887254961
 10
17.535662964876607
 20
99.71031218069727
 10
17.594013782376862
 20
99.71413045306595
 10
17.652364599877117
 20
99.7179736903516
 10
17.710715417377372
 20
99.72184189325473
 10
17.769066234877627
 20
99.72573506248033
 10
17.827417052377882
 20
99.729653198738
 10
17.885767869878137
 20
99.73359630274187
 10
17.944118687378392
 20
99.73756437521065
 10
18.002469504878647
 20
99.74155741686751
 10
18.060820322378902
 20
99.74557542844023
 10
18.119171139879157
 20
99.74961841066126
 10
18.17752195737941
 20
99.75368636426738
 10
18.235872774879663
 20
99.75777929000002
 10
18.294223592379918
 20
99.76189718860523
 10
18.352574409880173
 20
99.76604006083353
 10
18.410925227380428
 20
99.77020790744
 10
18.469276044880683
 20
99.77440072918431
 10
18.527626862380938
 20
99.77861852683061
 10
18.585977679881193
 20
99.78286130114772
 10
18.644328497381444
 20
99.78712905290884
 10
18.7026793148817
 20
99.79142178289193
 10
18.761030132381954
 20
99.79573949187933
 10
18.81938094988221
 20
99.80008218065801
 10
18.877731767382464
 20
99.80444985001951
 10
18.93608258488272
 20
99.80884250075984
 10
18.994433402382974
 20
99.81326013367966
 10
19.05278421988323
 20
99.81770274958411
 10
19.111135037383484
 20
99.82217034928296
 10
19.169485854883735
 20
99.82666293359047
 10
19.22783667238399
 20
99.83118050332546
 10
19.286187489884245
 20
99.83572305931132
 10
19.3445383073845
 20
99.84029060237602
 10
19.402889124884755
 20
99.84488313335198
 10
19.46123994238501
 20
99.84950065307633
 10
19.519590759885265
 20
99.85414316239063
 10
19.57794157738552
 20
99.85881066214104
 10
19.63629239488577
 20
99.86350315317826
 10
19.694643212386026
 20
99.8682206363576
 10
19.75299402988628
 20
99.87296311253884
 10
19.811344847386536
 20
99.87773058258641
 10
19.86969566488679
 20
99.88252304736916
 10
19.928046482387046
 20
99.88734050776067
 10
19.9863972998873
 20
99.89218296463893
 10
20.044748117387556
 20
99.89705041888656
 10
20.10309893488781
 20
99.90194287139072
 10
20.161449752388062
 20
99.90686032304309
 10
20.219800569888317
 20
99.91180277473997
 10
20.278151387388572
 20
99.9167702273822
 10
20.336502204888827
 20
99.92176268187514
 10
20.394853022389082
 20
99.92678013912872
 10
20.453203839889337
 20
99.93182260005749
 10
20.511554657389592
 20
99.93689006558044
 10
20.569905474889847
 20
99.94198253662118
 10
20.6282562923901
 20
99.94710001410796
 10
20.686607109890353
 20
99.95224249897338
 10
20.744957927390608
 20
99.95740999215487
 10
20.803308744890863
 20
99.96260249459415
 10
20.861659562391118
 20
99.96782000723768
 10
20.920010379891373
 20
99.97306253103643
 10
20.978361197391628
 20
99.9783300669459
 10
21.036712014891883
 20
99.98362261592617
 10
21.095062832392138
 20
99.98894017894186
 10
21.15341364989239
 20
99.99428275696216
 10
21.211764467392644
 20
99.99965035096089
 10
21.2701152848929
 20
100.00504296191629
 10
21.328466102393154
 20
100.01046059081123
 10
21.38681691989341
 20
100.01590323863321
 10
21.445167737393664
 20
100.02137090637417
 10
21.50351855489392
 20
100.02686359503069
 10
21.561869372394174
 20
100.03238130560386
 10
21.62022018989443
 20
100.03792403909942
 10
21.67857100739468
 20
100.0434917965275
 10
21.736921824894935
 20
100.04908457890299
 10
21.79527264239519
 20
100.05470238724517
 10
21.853623459895445
 20
100.06034522257802
 10
21.9119742773957
 20
100.06601308593001
 10
21.970325094895955
 20
100.07170597833415
 10
22.02867591239621
 20
100.07742390082804
 10
22.087026729896465
 20
100.08316685445392
 10
22.145377547396716
 20
100.08893484025846
 10
22.20372836489697
 20
100.09472785929292
 10
22.262079182397226
 20
100.10054591261321
 10
22.32042999989748
 20
100.10638900127971
 10
22.378780817397736
 20
100.11225712635745
 10
22.43713163489799
 20
100.11815028891588
 10
22.495482452398246
 20
100.12406849002925
 10
22.5538332698985
 20
100.13001173077608
 10
22.612184087398756
 20
100.13598001223967
 10
22.670534904899007
 20
100.14197333550784
 10
22.728885722399262
 20
100.1479917016729
 10
22.787236539899517
 20
100.15403511183182
 10
22.845587357399772
 20
100.16010356708607
 10
22.903938174900027
 20
100.16619706854168
 10
22.962288992400282
 20
100.17231561730931
 10
23.020639809900537
 20
100.17845921450414
 10
23.078990627400792
 20
100.18462786124591
 10
23.137341444901043
 20
100.19082155865893
 10
23.195692262401298
 20
100.19704030787209
 10
23.254043079901553
 20
100.20328411001883
 10
23.312393897401808
 20
100.20955296623721
 10
23.370744714902063
 20
100.2158468776697
 10
23.429095532402318
 20
100.2221658454636
 10
23.487446349902573
 20
100.22850987077048
 10
23.545797167402828
 20
100.23487895474672
 10
23.604147984903083
 20
100.24127309855312
 10
23.662498802403334
 20
100.24769230335512
 10
23.72084961990359
 20
100.2541365703227
 10
23.779200437403844
 20
100.26060590063038
 10
23.8375512549041
 20
100.26710029545733
 10
23.895902072404354
 20
100.27361975598721
 10
23.95425288990461
 20
100.28016428340824
 10
24.012603707404864
 20
100.28673387891332
 10
24.07095452490512
 20
100.29332854369981
 10
24.12930534240537
 20
100.29994827896967
 10
24.187656159905625
 20
100.3065930859294
 10
24.24600697740588
 20
100.31326296579017
 10
24.304357794906135
 20
100.31995791976765
 10
24.36270861240639
 20
100.32667794908203
 10
24.421059429906645
 20
100.33342305495815
 10
24.4794102474069
 20
100.34019323862536
 10
24.537761064907155
 20
100.34698850131765
 10
24.59611188240741
 20
100.35380884427359
 10
24.65446269990766
 20
100.36065426873618
 10
24.712813517407916
 20
100.36752477595313
 10
24.77116433490817
 20
100.37442036717671
 10
24.829515152408426
 20
100.38134104366368
 10
24.88786596990868
 20
100.38828680667548
 10
24.946216787408936
 20
100.39525765747801
 10
25.00456760490919
 20
100.40225359734181
 10
25.062918422409446
 20
100.40927462754202
 10
25.121269239909697
 20
100.41632074935826
 10
25.179620057409952
 20
100.42339196407484
 10
25.237970874910207
 20
100.43048827298053
 10
25.296321692410462
 20
100.43760967736871
 10
25.354672509910717
 20
100.44475617853742
 10
25.413023327410972
 20
100.45192777778915
 10
25.471374144911227
 20
100.459124476431
 10
25.529724962411482
 20
100.46634627577471
 10
25.588075779911737
 20
100.47359317713655
 10
25.64642659741199
 20
100.48086518183733
 10
25.704777414912243
 20
100.48816229120244
 10
25.763128232412498
 20
100.49548450656197
 10
25.821479049912753
 20
100.50283182925041
 10
25.879829867413008
 20
100.5102042606069
 10
25.938180684913263
 20
100.5176018019752
 10
25.996531502413518
 20
100.5250244547036
 10
26.054882319913773
 20
100.53247222014498
 10
26.113233137414024
 20
100.53994509965678
 10
26.17158395491428
 20
100.54744309460104
 10
26.229934772414534
 20
100.55496620634436
 10
26.28828558991479
 20
100.5625144362579
 10
26.346636407415044
 20
100.57008778571749
 10
26.4049872249153
 20
100.5776862561034
 10
26.463338042415554
 20
100.58530984880055
 10
26.52168885991581
 20
100.59295856519854
 10
26.580039677416064
 20
100.60063240669133
 10
26.638390494916315
 20
100.6083313746776
 10
26.69674131241657
 20
100.61605547056068
 10
26.755092129916825
 20
100.62380469574829
 10
26.81344294741708
 20
100.63157905165285
 10
26.871793764917335
 20
100.63937853969135
 10
26.93014458241759
 20
100.64720316128533
 10
26.988495399917845
 20
100.65505291786097
 10
27.0468462174181
 20
100.66292781084893
 10
27.10519703491835
 20
100.67082784168458
 10
27.163547852418606
 20
100.67875301180776
 10
27.22189866991886
 20
100.68670332266292
 10
27.280249487419116
 20
100.69467877569913
 10
27.33860030491937
 20
100.70267937237004
 10
27.396951122419626
 20
100.71070511413386
 10
27.45530193991988
 20
100.71875600245333
 10
27.513652757420136
 20
100.72683203879588
 10
27.57200357492039
 20
100.73493322463345
 10
27.630354392420642
 20
100.74305956144265
 10
27.688705209920897
 20
100.75121105070453
 10
27.747056027421152
 20
100.75938769390483
 10
27.805406844921407
 20
100.76758949253384
 10
27.863757662421662
 20
100.7758164480865
 10
27.922108479921917
 20
100.78406856206219
 10
27.980459297422172
 20
100.79234583596504
 10
28.038810114922427
 20
100.80064827130367
 10
28.097160932422682
 20
100.8089758695913
 10
28.155511749922933
 20
100.81732863234573
 10
28.213862567423188
 20
100.8257065610894
 10
28.272213384923443
 20
100.83410965734926
 10
28.330564202423698
 20
100.84253792265689
 10
28.388915019923953
 20
100.85099135854846
 10
28.447265837424208
 20
100.8594699665647
 10
28.505616654924463
 20
100.867973748251
 10
28.563967472424718
 20
100.87650270515722
 10
28.62231828992497
 20
100.88505683883791
 10
28.680669107425224
 20
100.89363615085215
 10
28.73901992492548
 20
100.90224064276366
 10
28.797370742425734
 20
100.9108703161407
 10
28.85572155992599
 20
100.91952517255613
 10
28.914072377426244
 20
100.92820521358747
 10
28.9724231949265
 20
100.9369104408167
 10
29.030774012426754
 20
100.94564085583049
 10
29.08912482992701
 20
100.95439646022005
 10
29.14747564742726
 20
100.96317725558124
 10
29.205826464927515
 20
100.97198324351446
 10
29.26417728242777
 20
100.9808144256247
 10
29.322528099928025
 20
100.9896708035216
 10
29.38087891742828
 20
100.99855237881927
 10
29.439229734928535
 20
101.0074591531366
 10
29.49758055242879
 20
101.01639112809686
 10
29.555931369929045
 20
101.02534830532811
 10
29.614282187429296
 20
101.03433068646284
 10
29.67263300492955
 20
101.04333827313825
 10
29.730983822429806
 20
101.05237106699609
 10
29.78933463993006
 20
101.06142906968266
 10
29.847685457430316
 20
101.07051228284895
 10
29.90603627493057
 20
101.07962070815047
 10
29.964387092430826
 20
101.08875434724736
 10
30.02273790993108
 20
101.0979132018043
 10
30.081088727431336
 20
101.10709727349071
 10
30.139439544931587
 20
101.11630656398042
 10
30.197790362431842
 20
101.12554107495193
 10
30.256141179932097
 20
101.13480080808843
 10
30.314491997432352
 20
101.1440857650776
 10
30.372842814932607
 20
101.15339594761168
 10
30.431193632432862
 20
101.16273135738764
 10
30.489544449933117
 20
101.17209199610697
 10
30.547895267433372
 20
101.18147786547577
 10
30.606246084933623
 20
101.19088896720469
 10
30.66459690243388
 20
101.20032530300911
 10
30.722947719934133
 20
101.20978687460887
 10
30.781298537434388
 20
101.21927368372845
 10
30.839649354934643
 20
101.22878573209697
 10
30.898000172434898
 20
101.23832302144812
 10
30.956350989935153
 20
101.24788555352022
 10
31.014701807435408
 20
101.2574733300561
 10
31.073052624935663
 20
101.26708635280333
 10
31.131403442435914
 20
101.27672462351397
 10
31.18975425993617
 20
101.28638814394476
 10
31.248105077436424
 20
101.29607691585694
 10
31.30645589493668
 20
101.30579094101644
 10
31.364806712436934
 20
101.31553022119381
 10
31.42315752993719
 20
101.32529475816408
 10
31.481508347437444
 20
101.33508455370703
 10
31.5398591649377
 20
101.34489960960697
 10
31.59820998243795
 20
101.35473992765283
 10
31.656560799938205
 20
101.36460550963803
 10
31.71491161743846
 20
101.37449635736085
 10
31.773262434938715
 20
101.38441247262394
 10
31.83161325243897
 20
101.39435385723469
 10
31.889964069939225
 20
101.404320513005
 10
31.94831488743948
 20
101.41431244175145
 10
32.006665704939735
 20
101.42432964529517
 10
32.06501652243999
 20
101.43437212546196
 10
32.12336733994024
 20
101.4444398840822
 10
32.18171815744049
 20
101.45453292299082
 10
32.24006897494075
 20
101.46465124402745
 10
32.298419792441
 20
101.47479484903629
 10
32.35677060994126
 20
101.4849637398661
 10
32.41512142744151
 20
101.49515791837034
 10
32.47347224494177
 20
101.505377386407
 10
32.53182306244202
 20
101.51562214583875
 10
32.59017387994228
 20
101.52589219853279
 10
32.64852469744253
 20
101.536187546361
 10
32.70687551494279
 20
101.54650819119978
 10
32.76522633244304
 20
101.55685413493028
 10
32.8235771499433
 20
101.56722537943817
 10
32.88192796744355
 20
101.5776219266137
 10
32.94027878494381
 20
101.5880437783518
 10
32.99862960244406
 20
101.59849093655201
 10
33.05698041994432
 20
101.60896340311844
 10
33.115331237444565
 20
101.61946117995983
 10
33.17368205494482
 20
101.62998426898953
 10
33.232032872445075
 20
101.64053267212556
 10
33.29038368994533
 20
101.65110639129041
 10
33.348734507445585
 20
101.66170542841137
 10
33.40708532494584
 20
101.67232978542019
 10
33.465436142446094
 20
101.68297946425334
 10
33.52378695994635
 20
101.69365446685187
 10
33.582137777446604
 20
101.7043547951614
 10
33.64048859494686
 20
101.71508045113218
 10
33.698839412447114
 20
101.72583143671916
 10
33.75719022994737
 20
101.73660775388184
 10
33.815541047447624
 20
101.74740940458433
 10
33.87389186494788
 20
101.75823639079537
 10
33.932242682448134
 20
101.76908871448832
 10
33.99059349994839
 20
101.77996637764114
 10
34.048944317448644
 20
101.7908693822365
 10
34.1072951349489
 20
101.80179773026153
 10
34.165645952449154
 20
101.8127514237081
 10
34.22399676994941
 20
101.82373046457262
 10
34.282347587449664
 20
101.83473485485622
 10
34.34069840494991
 20
101.84576459656459
 10
34.39904922245017
 20
101.856819691708
 10
34.45740003995042
 20
101.86790014230145
 10
34.515750857450676
 20
101.87900595036443
 10
34.57410167495093
 20
101.89013711792116
 10
34.632452492451186
 20
101.9012936470004
 10
34.69080330995144
 20
101.91247553963562
 10
34.749154127451696
 20
101.92368279786483
 10
34.80750494495195
 20
101.93491542373077
 10
34.865855762452206
 20
101.94617341928061
 10
34.92420657995246
 20
101.9574567865664
 10
34.982557397452716
 20
101.96876552764455
 10
35.04090821495297
 20
101.98009964457633
 10
35.099259032453226
 20
101.99145913942745
 10
35.15760984995348
 20
102.0028440142684
 10
35.215960667453736
 20
102.01425427117418
 10
35.27431148495399
 20
102.02568991222448
 10
35.33266230245424
 20
102.03715093950355
 10
35.39101311995449
 20
102.04863735510038
 10
35.44936393745475
 20
102.06014916110844
 10
35.507714754955
 20
102.07168635962599
 10
35.56606557245526
 20
102.08324895275577
 10
35.62441638995551
 20
102.0948369426052
 10
35.68276720745577
 20
102.10645033128644
 10
35.74111802495602
 20
102.11808912091605
 10
35.79946884245628
 20
102.12975331361547
 10
35.85781965995653
 20
102.1414429115106
 10
35.91617047745679
 20
102.15315791673201
 10
35.97452129495704
 20
102.1648983314149
 10
36.0328721124573
 20
102.17666415769916
 10
36.09122292995755
 20
102.18845539772927
 10
36.14957374745781
 20
102.20027205365427
 10
36.20792456495806
 20
102.21211412762794
 10
36.26627538245832
 20
102.2239816218087
 10
36.324626199958566
 20
102.23587453835945
 10
36.38297701745882
 20
102.24779287944791
 10
36.441327834959075
 20
102.25973664724633
 10
36.49967865245933
 20
102.27170584393163
 10
36.558029469959585
 20
102.28370047168532
 10
36.61638028745984
 20
102.29572053269361
 10
36.674731104960095
 20
102.30776602914729
 10
36.73308192246035
 20
102.3198369632418
 10
36.791432739960605
 20
102.33193333717726
 10
36.84978355746086
 20
102.34405515315838
 10
36.908134374961115
 20
102.35620241339448
 10
36.96648519246137
 20
102.36837512009966
 10
37.024836009961625
 20
102.38057327549241
 10
37.08318682746188
 20
102.39279688179612
 10
37.141537644962135
 20
102.40504594123864
 10
37.19988846246239
 20
102.41732045605256
 10
37.258239279962645
 20
102.42962042847502
 10
37.31659009746289
 20
102.44194586074788
 10
37.37494091496315
 20
102.45429675511762
 10
37.4332917324634
 20
102.46667311383531
 10
37.49164254996366
 20
102.47907493915677
 10
37.54999336746391
 20
102.49150223334236
 10
37.60834418496417
 20
102.50395499865708
 10
37.66669500246442
 20
102.51643323737069
 10
37.72504581996468
 20
102.52893695175744
 10
37.78339663746493
 20
102.54146614409633
 10
37.84174745496519
 20
102.55402081667093
 10
37.90009827246544
 20
102.56660097176952
 10
37.9584490899657
 20
102.57920661168502
 10
38.01679990746595
 20
102.59183773871494
 10
38.07515072496621
 20
102.60449435516149
 10
38.13350154246646
 20
102.61717646333149
 10
38.19185235996672
 20
102.62988406553642
 10
38.25020317746697
 20
102.64261716409239
 10
38.30855399496722
 20
102.6553757613202
 10
38.366904812467475
 20
102.66815985954521
 10
38.42525562996773
 20
102.68096946109763
 10
38.483606447467984
 20
102.69380456831202
 10
38.54195726496824
 20
102.70666518352782
 10
38.600308082468494
 20
102.71955130908906
 10
38.65865889996875
 20
102.73246294734433
 10
38.717009717469004
 20
102.74540010064702
 10
38.77536053496926
 20
102.7583627713551
 10
38.833711352469514
 20
102.77135096183109
 10
38.89206216996977
 20
102.78436467444236
 10
38.950412987470024
 20
102.79740391156078
 10
39.00876380497028
 20
102.81046867556292
 10
39.067114622470534
 20
102.82355896883006
 10
39.12546543997079
 20
102.83667479374797
 10
39.183816257471044
 20
102.84981615270728
 10
39.2421670749713
 20
102.86298304810309
 10
39.30051789247155
 20
102.87617548233534
 10
39.3588687099718
 20
102.8893934578084
 10
39.41721952747206
 20
102.90263697693153
 10
39.47557034497231
 20
102.9159060421185
 10
39.533921162472566
 20
102.92920065578771
 10
39.59227197997282
 20
102.94252082036236
 10
39.650622797473076
 20
102.95586653827014
 10
39.70897361497333
 20
102.96923781194359
 10
39.767324432473586
 20
102.98263464381971
 10
39.82567524997384
 20
102.99605703634025
 10
39.884026067474096
 20
103.00950499195166
 10
39.94237688497435
 20
103.02297851310497
 10
40.000727702474606
 20
103.03647760225594
 10
40.05907851997486
 20
103.05000226186495
 10
40.117429337475116
 20
103.063552494397
 10
40.17578015497537
 20
103.07712830232184
 10
40.234130972475626
 20
103.09072968811383
 10
40.29248178997588
 20
103.10435665425196
 10
40.35083260747613
 20
103.11800920321998
 10
40.40918342497638
 20
103.13168733750622
 10
40.46753424247664
 20
103.14539105960368
 10
40.52588505997689
 20
103.15912037201012
 10
40.58423587747715
 20
103.17287527722776
 10
40.6425866949774
 20
103.18665577776373
 10
40.70093751247766
 20
103.20046187612961
 10
40.75928832997791
 20
103.21429357484182
 10
40.81763914747817
 20
103.22815087642128
 10
40.87598996497842
 20
103.24203378339375
 10
40.93434078247868
 20
103.25594229828955
 10
40.99269159997893
 20
103.26987642364368
 10
41.05104241747919
 20
103.28383616199578
 10
41.10939323497944
 20
103.29782151589022
 10
41.1677440524797
 20
103.31183248787603
 10
41.22609486997995
 20
103.3258690805069
 10
41.28444568748021
 20
103.3399312963411
 10
41.342796504980456
 20
103.35401913794179
 10
41.40114732248071
 20
103.36813260787655
 10
41.459498139980965
 20
103.38227170871777
 10
41.51784895748122
 20
103.3964364430425
 10
41.576199774981475
 20
103.41062681343244
 10
41.63455059248173
 20
103.42484282247399
 10
41.692901409981985
 20
103.43908447275818
 10
41.75125222748224
 20
103.45335176688074
 10
41.809603044982495
 20
103.46764470744206
 10
41.86795386248275
 20
103.48196329704724
 10
41.926304679983005
 20
103.496307538306
 10
41.98465549748326
 20
103.51067743383281
 10
42.043006314983515
 20
103.52507298624671
 10
42.10135713248377
 20
103.53949419817151
 10
42.159707949984025
 20
103.5539410722357
 10
42.21805876748428
 20
103.56841361107233
 10
42.276409584984535
 20
103.58291181731927
 10
42.33476040248478
 20
103.597435693619
 10
42.39311121998504
 20
103.61198524261864
 10
42.45146203748529
 20
103.6265604669701
 10
42.50981285498555
 20
103.64116136932988
 10
42.5681636724858
 20
103.65578795235912
 10
42.62651448998606
 20
103.67044021872384
 10
42.68486530748631
 20
103.68511817109449
 10
42.74321612498657
 20
103.69982181214637
 10
42.80156694248682
 20
103.71455114455937
 10
42.85991775998708
 20
103.72930617101817
 10
42.91826857748733
 20
103.744086894212
 10
42.97661939498759
 20
103.75889331683489
 10
43.03497021248784
 20
103.77372544158546
 10
43.0933210299881
 20
103.7885832711671
 10
43.15167184748835
 20
103.80346680828778
 10
43.21002266498861
 20
103.8183760556603
 10
43.26837348248886
 20
103.83331101600199
 10
43.32672429998911
 20
103.84827169203497
 10
43.385075117489365
 20
103.86325808648606
 10
43.44342593498962
 20
103.87827020208668
 10
43.501776752489874
 20
103.89330804157298
 10
43.56012756999013
 20
103.9083716076858
 10
43.618478387490384
 20
103.92346090317072
 10
43.67682920499064
 20
103.9385759307779
 10
43.735180022490894
 20
103.95371669326228
 10
43.79353083999115
 20
103.96888319338346
 10
43.851881657491404
 20
103.98407543390574
 10
43.91023247499166
 20
103.99929341759808
 10
43.968583292491914
 20
104.01453714723418
 10
44.02693410999217
 20
104.0298066255924
 10
44.085284927492424
 20
104.04510185545577
 10
44.14363574499268
 20
104.06042283961212
 10
44.201986562492934
 20
104.07576958085382
 10
44.26033737999319
 20
104.09114208197808
 10
44.31868819749344
 20
104.10654034578668
 10
44.37703901499369
 20
104.12196437508616
 10
44.43538983249395
 20
104.1374141726878
 10
44.4937406499942
 20
104.15288974140749
 10
44.552091467494456
 20
104.16839108406585
 10
44.61044228499471
 20
104.18391820348823
 10
44.668793102494966
 20
104.1994711025046
 10
44.72714391999522
 20
104.21504978394977
 10
44.785494737495476
 20
104.23065425066305
 10
44.84384555499573
 20
104.24628450548862
 10
44.902196372495986
 20
104.26194055127526
 10
44.96054718999624
 20
104.27762239087654
 10
45.018898007496496
 20
104.29333002715065
 10
45.07724882499675
 20
104.30906346296054
 10
45.135599642497006
 20
104.32482270117374
 10
45.19395045999726
 20
104.34060774466268
 10
45.252301277497516
 20
104.35641859630432
 10
45.310652094997764
 20
104.37225525898045
 10
45.36900291249802
 20
104.38811773557752
 10
45.42735372999827
 20
104.40400602898656
 10
45.48570454749853
 20
104.41992014210355
 10
45.54405536499878
 20
104.43586007782896
 10
45.60240618249904
 20
104.45182583906812
 10
45.66075699999929
 20
104.46781742873092
 10
45.71910781749955
 20
104.4838348497321
 10
45.7774586349998
 20
104.49987810499103
 10
45.83580945250006
 20
104.51594719743174
 10
45.89416027000031
 20
104.53204212998314
 10
45.95251108750057
 20
104.54816290557865
 10
46.01086190500082
 20
104.56430952715651
 10
46.06921272250108
 20
104.58048199765965
 10
46.12756354000133
 20
104.59668032003579
 10
46.18591435750159
 20
104.61290449723718
 10
46.24426517500184
 20
104.62915453222097
 10
46.30261599250209
 20
104.64543042794888
 10
46.360966810002346
 20
104.66173218738744
 10
46.4193176275026
 20
104.67805981350783
 10
46.477668445002855
 20
104.69441330928599
 10
46.53601926250311
 20
104.71079267770257
 10
46.594370080003365
 20
104.72719792174287
 10
46.65272089750362
 20
104.74362904439703
 10
46.711071715003875
 20
104.7600860486598
 10
46.76942253250413
 20
104.77656893753068
 10
46.827773350004385
 20
104.79307771401393
 10
46.88612416750464
 20
104.80961238111841
 10
46.944474985004895
 20
104.82617294185785
 10
47.00282580250515
 20
104.8427593992506
 10
47.061176620005405
 20
104.85937175631979
 10
47.11952743750566
 20
104.87601001609319
 10
47.177878255005915
 20
104.89267418160334
 10
47.23622907250617
 20
104.90936425588755
 10
47.29457989000642
 20
104.92608024198778
 10
47.35293070750667
 20
104.9428221429507
 10
47.41128152500693
 20
104.95958996182777
 10
47.46963234250718
 20
104.97638370167518
 10
47.52798316000744
 20
104.99320336555378
 10
47.58633397750769
 20
105.01004895652913
 10
47.64468479500795
 20
105.0269204776716
 10
47.7030356125082
 20
105.04381793205629
 10
47.76138643000846
 20
105.06074132276287
 10
47.81973724750871
 20
105.07769065287592
 10
47.87808806500897
 20
105.09466592548465
 10
47.93643888250922
 20
105.11166714368308
 10
47.99478970000948
 20
105.12869431056983
 10
48.05314051750973
 20
105.14574742924837
 10
48.11149133500999
 20
105.16282650282683
 10
48.16984215251024
 20
105.17993153441812
 10
48.2281929700105
 20
105.1970625271398
 10
48.286543787510745
 20
105.21421948411431
 10
48.344894605011
 20
105.23140240846858
 10
48.403245422511255
 20
105.24861130333458
 10
48.46159624001151
 20
105.26584617184882
 10
48.519947057511764
 20
105.28310701715249
 10
48.57829787501202
 20
105.3003938423917
 10
48.636648692512274
 20
105.31770665071714
 10
48.69499951001253
 20
105.33504544528431
 10
48.753350327512784
 20
105.35241022925344
 10
48.81170114501304
 20
105.36980100578951
 10
48.870051962513294
 20
105.38721777806218
 10
48.92840278001355
 20
105.40466054924589
 10
48.986753597513804
 20
105.42212932251984
 10
49.04510441501406
 20
105.43962410106788
 10
49.103455232514314
 20
105.4571448880787
 10
49.16180605001457
 20
105.47469168674571
 10
49.220156867514824
 20
105.49226450026707
 10
49.27850768501507
 20
105.50986333184552
 10
49.33685850251533
 20
105.52748818468883
 10
49.39520932001558
 20
105.54513906200928
 10
49.45356013751584
 20
105.56281596702395
 10
49.51191095501609
 20
105.58051890295478
 10
49.570261772516346
 20
105.59824787302828
 10
49.6286125900166
 20
105.61600288047579
 10
49.686963407516856
 20
105.63378392853345
 10
49.74531422501711
 20
105.65159102044198
 10
49.803665042517366
 20
105.6694241594471
 10
49.86201586001762
 20
105.687283348799
 10
49.920366677517876
 20
105.70516859175284
 10
49.97871749501813
 20
105.72307989156836
 10
50.037068312518386
 20
105.7410172515102
 10
50.09541913001864
 20
105.75898067484765
 10
50.153769947518896
 20
105.77697016485477
 10
50.21212076501915
 20
105.79498572481039
 10
50.2704715825194
 20
105.81302735799808
 10
50.328822400019654
 20
105.83109506770616
 10
50.38717321751991
 20
105.84918885722767
 10
50.44552403502016
 20
105.86730872986054
 10
50.50387485252042
 20
105.88545468890725
 10
50.56222567002067
 20
105.90362673767514
 10
50.62057648752093
 20
105.92182487947635
 10
50.67892730502118
 20
105.94004911762774
 10
50.73727812252144
 20
105.95829945545084
 10
50.79562894002169
 20
105.97657589627214
 10
50.85397975752195
 20
105.99487844342259
 10
50.9123305750222
 20
106.0132071002382
 10
50.97068139252246
 20
106.0315618700596
 10
51.02903221002271
 20
106.04994275623211
 10
51.08738302752297
 20
106.06834976210594
 10
51.14573384502322
 20
106.08678289103598
 10
51.20408466252348
 20
106.10524214638194
 10
51.262435480023726
 20
106.12372753150821
 10
51.32078629752398
 20
106.14223904978404
 10
51.379137115024236
 20
106.16077670458337
 10
51.43748793252449
 20
106.17934049928492
 10
51.495838750024745
 20
106.1979304372722
 10
51.554189567525
 20
106.21654652193352
 10
51.612540385025255
 20
106.23518875666183
 10
51.67089120252551
 20
106.2538571448549
 10
51.729242020025765
 20
106.2725516899154
 10
51.78759283752602
 20
106.29127239525052
 10
51.845943655026275
 20
106.31001926427247
 10
51.90429447252653
 20
106.328792300398
 10
51.962645290026785
 20
106.34759150704888
 10
52.02099610752704
 20
106.36641688765137
 10
52.079346925027295
 20
106.3852684456367
 10
52.13769774252755
 20
106.40414618444082
 10
52.196048560027805
 20
106.42305010750444
 10
52.25439937752805
 20
106.44198021827303
 10
52.31275019502831
 20
106.46093652019685
 10
52.37110101252856
 20
106.47991901673099
 10
52.42945183002882
 20
106.49892771133518
 10
52.48780264752907
 20
106.51796260747402
 10
52.54615346502933
 20
106.5370237086169
 10
52.60450428252958
 20
106.55611101823793
 10
52.66285510002984
 20
106.57522453981603
 10
52.72120591753009
 20
106.59436427683487
 10
52.77955673503035
 20
106.61353023278296
 10
52.8379075525306
 20
106.63272241115347
 10
52.89625837003086
 20
106.65194081544452
 10
52.95460918753111
 20
106.67118544915881
 10
53.01296000503137
 20
106.69045631580404
 10
53.07131082253162
 20
106.70975341889245
 10
53.12966164003188
 20
106.7290767619413
 10
53.18801245753213
 20
106.74842634847248
 10
53.24636327503238
 20
106.76780218201266
 10
53.304714092532635
 20
106.78720426609341
 10
53.36306491003289
 20
106.80663260425099
 10
53.421415727533144
 20
106.82608720002644
 10
53.4797665450334
 20
106.84556805696563
 10
53.538117362533654
 20
106.86507517861922
 10
53.59646818003391
 20
106.88460856854259
 10
53.654818997534164
 20
106.90416823029598
 10
53.71316981503442
 20
106.92375416744441
 10
53.771520632534674
 20
106.94336638355769
 10
53.82987145003493
 20
106.96300488221037
 10
53.888222267535184
 20
106.98266966698175
 10
53.94657308503544
 20
107.00236074145612
 10
54.004923902535694
 20
107.02207810922239
 10
54.06327472003595
 20
107.04182177387428
 10
54.121625537536204
 20
107.06159173901035
 10
54.17997635503646
 20
107.08138800823393
 10
54.238327172536714
 20
107.10121058515314
 10
54.29667799003696
 20
107.12105947338095
 10
54.35502880753722
 20
107.140934676535
 10
54.41337962503747
 20
107.16083619823787
 10
54.471730442537726
 20
107.18076404211685
 10
54.53008126003798
 20
107.20071821180404
 10
54.588432077538236
 20
107.22069871093636
 10
54.64678289503849
 20
107.2407055431555
 10
54.705133712538746
 20
107.26073871210797
 10
54.763484530039
 20
107.2807982214451
 10
54.821835347539256
 20
107.30088407482295
 10
54.88018616503951
 20
107.32099627590249
 10
54.938536982539766
 20
107.34113482834935
 10
54.99688780004002
 20
107.36129973583418
 10
55.055238617540276
 20
107.38149100203215
 10
55.11358943504053
 20
107.40170863062345
 10
55.171940252540786
 20
107.42195262529297
 10
55.23029107004104
 20
107.4422229897305
 10
55.28864188754129
 20
107.46251972763052
 10
55.346992705041544
 20
107.48284284269245
 10
55.4053435225418
 20
107.50319233862034
 10
55.46369434004205
 20
107.52356821912322
 10
55.52204515754231
 20
107.54397048791485
 10
55.58039597504256
 20
107.5643991487138
 10
55.63874679254282
 20
107.58485420524347
 10
55.69709761004307
 20
107.60533566123205
 10
55.75544842754333
 20
107.62584352041254
 10
55.81379924504358
 20
107.64637778652282
 10
55.87215006254384
 20
107.66693846330544
 10
55.93050088004409
 20
107.68752555450793
 10
55.98885169754435
 20
107.70813906388248
 10
56.0472025150446
 20
107.72877899518626
 10
56.10555333254486
 20
107.74944535218113
 10
56.16390415004511
 20
107.77013813863378
 10
56.22225496754537
 20
107.79085735831573
 10
56.280605785045616
 20
107.81160301500337
 10
56.33895660254587
 20
107.83237511247783
 10
56.397307420046126
 20
107.85317365452512
 10
56.45565823754638
 20
107.87399864493607
 10
56.514009055046635
 20
107.89485008750624
 10
56.57235987254689
 20
107.91572798603612
 10
56.630710690047145
 20
107.93663234433096
 10
56.6890615075474
 20
107.9575631662009
 10
56.747412325047655
 20
107.97852045546081
 10
56.80576314254791
 20
107.99950421593037
 10
56.864113960048165
 20
108.02051445143427
 10
56.92246477754842
 20
108.0415511658018
 10
56.980815595048675
 20
108.06261436286725
 10
57.03916641254893
 20
108.08370404646963
 10
57.097517230049185
 20
108.10482022045277
 10
57.15586804754944
 20
108.12596288866543
 10
57.214218865049695
 20
108.14713205496112
 10
57.27256968254994
 20
108.16832772319815
 10
57.3309205000502
 20
108.18954989723979
 10
57.38927131755045
 20
108.21079858095395
 10
57.44762213505071
 20
108.23207377821358
 10
57.50597295255096
 20
108.2533754928963
 10
57.56432377005122
 20
108.27470372888466
 10
57.62267458755147
 20
108.29605849006599
 10
57.68102540505173
 20
108.31743978033249
 10
57.73937622255198
 20
108.33884760358116
 10
57.79772704005224
 20
108.36028196371386
 10
57.85607785755249
 20
108.3817428646373
 10
57.91442867505275
 20
108.40323031026297
 10
57.972779492553
 20
108.42474430450729
 10
58.03113031005326
 20
108.4462848512914
 10
58.08948112755351
 20
108.46785195454142
 10
58.14783194505377
 20
108.48944561818816
 10
58.20618276255402
 20
108.5110658461674
 10
58.26453358005427
 20
108.53271264241967
 10
58.322884397554525
 20
108.55438601089041
 10
58.38123521505478
 20
108.57608595552988
 10
58.439586032555034
 20
108.59781248029314
 10
58.49793685005529
 20
108.61956558914018
 10
58.556287667555544
 20
108.64134528603576
 10
58.6146384850558
 20
108.66315157494948
 10
58.672989302556054
 20
108.6849844598559
 10
58.73134012005631
 20
108.70684394473427
 10
58.789690937556564
 20
108.72873003356882
 10
58.84804175505682
 20
108.75064273034859
 10
58.906392572557074
 20
108.77258203906736
 10
58.96474339005733
 20
108.79454796372393
 10
59.023094207557584
 20
108.81654050832184
 10
59.08144502505784
 20
108.8385596768696
 10
59.139795842558094
 20
108.86060547338035
 10
59.19814666005835
 20
108.88267790187233
 10
59.2564974775586
 20
108.90477696636852
 10
59.31484829505885
 20
108.92690267089675
 10
59.37319911255911
 20
108.94905501948968
 10
59.43154993005936
 20
108.97123401618491
 10
59.489900747559616
 20
108.99343966502481
 10
59.54825156505987
 20
109.01567197005669
 10
59.606602382560126
 20
109.03793093533265
 10
59.66495320006038
 20
109.06021656490971
 10
59.723304017560636
 20
109.08252886284966
 10
59.78165483506089
 20
109.10486783321927
 10
59.840005652561146
 20
109.12723348009006
 10
59.8983564700614
 20
109.1496258075385
 10
59.956707287561656
 20
109.17204481964585
 10
60.01505810506191
 20
109.19449052049826
 10
60.073408922562166
 20
109.21696291418682
 10
60.13175974006242
 20
109.23946200480732
 10
60.190110557562676
 20
109.26198779646059
 10
60.248461375062924
 20
109.28454029325219
  0
LINE
  5
96
330
17
100
AcDbEntity
  8
INSULATORS
100
AcDbLine
 10
0.0
 20
100.0
 30
0.0
 11
1.955994692308649
 21
99.58276533741743
 31
0.0
  0
LINE
  5
97
330
17
100
AcDbEntity
  8
INSULATORS
100
AcDbLine
 10
62.0
 20
110.25
 30
0.0
 11
60.248461375062924
 21
109.2845402932522
 31
0.0
  0
CIRCLE
  5
98
330
17
100
AcDbEntity
  8
SUPPORTS
100
AcDbCircle
 10
0.0
 20
100.0
 30
0.0
 40
0.186
  0
TEXT
  5
99
330
17
100
AcDbEntity
  8
ANNOTATIONS
100
AcDbText
 10
0.279
 20
100.279
 30
0.0
 40
0.744
  1
A
100
AcDbText
  0
CIRCLE
  5
9A
330
17
100
AcDbEntity
  8
SUPPORTS
100
AcDbCircle
 10
62.0
 20
110.25
 30
0.0
 40
0.186
  0
TEXT
  5
9B
330
17
100
AcDbEntity
  8
ANNOTATIONS
100
AcDbText
 10
62.279
 20
110.529
 30
0.0
 40
0.744
  1
B
100
AcDbText
  0
CIRCLE
  5
9C
330
17
100
AcDbEntity
  8
ATTACHMENTS
100
AcDbCircle
 10
1.955994692308649
 20
99.58276533741743
 30
0.0
 40
0.186
  0
TEXT
  5
9D
330
17
100
AcDbEntity
  8
ANNOTATIONS
100
AcDbText
 10
2.327994692308649
 20
98.46676533741743
 30
0.0
 40
0.744
  1
C
100
AcDbText
  0
CIRCLE
  5
9E
330
17
100
AcDbEntity
  8
ATTACHMENTS
100
AcDbCircle
 10
60.248461375062924
 20
109.2845402932522
 30
0.0
 40
0.186
  0
TEXT
  5
9F
330
17
100
AcDbEntity
  8
ANNOTATIONS
100
AcDbText
 10
60.62046137506292
 20
108.1685402932522
 30
0.0
 40
0.744
  1
D
100
AcDbText
  0
LINE
  5
A0
330
17
100
AcDbEntity
  8
CHORD_AB
100
AcDbLine
 10
0.0
 20
100.0
 30
0.0
 11
62.0
 21
110.25
 31
0.0
  0
CIRCLE
  5
A1
330
17
100
AcDbEntity
  8
CHARACTERISTIC_POINTS
100
AcDbCircle
 10
8.627500763638306
 20
99.41990836956005
 30
0.0
 40
0.186
  0
TEXT
  5
A2
330
17
100
AcDbEntity
  8
ANNOTATIONS
100
AcDbText
 10
8.906500763638306
 20
99.69890836956004
 30
0.0
 40
0.744
  1
V
100
AcDbText
  0
LINE
  5
A3
330
17
100
AcDbEntity
  8
SAG
100
AcDbLine
 10
31.121726181642238
 20
101.27512440654245
 30
0.0
 11
31.121726181642238
 21
105.14512408648118
 31
0.0
  0
CIRCLE
  5
A4
330
17
100
AcDbEntity
  8
CHARACTERISTIC_POINTS
100
AcDbCircle
 10
31.121726181642238
 20
101.27512440654245
 30
0.0
 40
0.186
  0
TEXT
  5
A5
330
17
100
AcDbEntity
  8
ANNOTATIONS
100
AcDbText
 10
31.493726181642238
 20
100.15912440654245
 30
0.0
 40
0.744
  1
S
100
AcDbText
  0
CIRCLE
  5
A6
330
17
100
AcDbEntity
  8
CHARACTERISTIC_POINTS
100
AcDbCircle
 10
31.121726181642238
 20
105.14512408648118
 30
0.0
 40
0.186
  0
TEXT
  5
A7
330
17
100
AcDbEntity
  8
ANNOTATIONS
100
AcDbText
 10
31.493726181642238
 20
105.51712408648118
 30
0.0
 40
0.744
  1
P
100
AcDbText
  0
LWPOLYLINE
  5
A8
330
17
100
AcDbEntity
  8
IDEALIZED
100
AcDbPolyline
 90
1000
 70
0
 10
0.0
 20
100.0
 10
0.062062062062062065
 20
99.99490792863794
 10
0.12412412412412413
 20
99.98984641945165
 10
0.1861861861861862
 20
99.98481547122185
 10
0.24824824824824826
 20
99.97981508273668
 10
0.3103103103103103
 20
99.97484525279151
 10
0.3723723723723724
 20
99.96990598018921
 10
0.43443443443443447
 20
99.96499726373995
 10
0.4964964964964965
 20
99.96011910226125
 10
0.5585585585585586
 20
99.955271494578
 10
0.6206206206206206
 20
99.9504544395225
 10
0.6826826826826827
 20
99.94566793593432
 10
0.7447447447447448
 20
99.94091198266047
 10
0.8068068068068068
 20
99.93618657855528
 10
0.8688688688688689
 20
99.9314917224804
 10
0.9309309309309309
 20
99.92682741330495
 10
0.992992992992993
 20
99.92219364990534
 10
1.055055055055055
 20
99.91759043116528
 10
1.1171171171171173
 20
99.91301775597594
 10
1.1791791791791792
 20
99.9084756232358
 10
1.2412412412412412
 20
99.9039640318507
 10
1.3033033033033035
 20
99.89948298073385
 10
1.3653653653653655
 20
99.89503246880577
 10
1.4274274274274275
 20
99.89061249499443
 10
1.4894894894894897
 20
99.88622305823506
 10
1.5515515515515517
 20
99.88186415747032
 10
1.6136136136136137
 20
99.87753579165016
 10
1.6756756756756757
 20
99.87323795973192
 10
1.7377377377377379
 20
99.86897066068032
 10
1.7997997997997999
 20
99.86473389346737
 10
1.8618618618618619
 20
99.86052765707251
 10
1.923923923923924
 20
99.85635195048249
 10
1.985985985985986
 20
99.8522067726914
 10
2.0480480480480483
 20
99.84809212270072
 10
2.11011011011011
 20
99.84400799951925
 10
2.1721721721721723
 20
99.83995440216322
 10
2.2342342342342345
 20
99.83593132965609
 10
2.2962962962962963
 20
99.83193878102878
 10
2.3583583583583585
 20
99.82797675531951
 10
2.4204204204204207
 20
99.82404525157388
 10
2.4824824824824825
 20
99.8201442688448
 10
2.5445445445445447
 20
99.81627380619258
 10
2.606606606606607
 20
99.81243386268487
 10
2.6686686686686687
 20
99.80862443739665
 10
2.730730730730731
 20
99.80484552941023
 10
2.792792792792793
 20
99.80109713781538
 10
2.854854854854855
 20
99.7973792617091
 10
2.916916916916917
 20
99.79369190019582
 10
2.9789789789789793
 20
99.79003505238725
 10
3.041041041041041
 20
99.78640871740252
 10
3.1031031031031033
 20
99.78281289436806
 10
3.165165165165165
 20
99.7792475824177
 10
3.2272272272272273
 20
99.77571278069257
 10
3.2892892892892895
 20
99.77220848834116
 10
3.3513513513513513
 20
99.76873470451933
 10
3.4134134134134135
 20
99.76529142839028
 10
3.4754754754754758
 20
99.76187865912456
 10
3.5375375375375375
 20
99.75849639590005
 10
3.5995995995995997
 20
99.75514463790203
 10
3.661661661661662
 20
99.75182338432307
 10
3.7237237237237237
 20
99.74853263436312
 10
3.785785785785786
 20
99.74527238722942
 10
3.847847847847848
 20
99.74204264213668
 10
3.90990990990991
 20
99.73884339830687
 10
3.971971971971972
 20
99.73567465496929
 10
4.034034034034034
 20
99.73253641136064
 10
4.096096096096097
 20
99.72942866672493
 10
4.158158158158158
 20
99.72635142031355
 10
4.22022022022022
 20
99.72330467138524
 10
4.282282282282282
 20
99.720288419206
 10
4.344344344344345
 20
99.71730266304931
 10
4.406406406406407
 20
99.71434740219593
 10
4.468468468468469
 20
99.71142263593393
 10
4.53053053053053
 20
99.70852836355877
 10
4.592592592592593
 20
99.70566458437325
 10
4.654654654654655
 20
99.70283129768754
 10
4.716716716716717
 20
99.70002850281907
 10
4.778778778778779
 20
99.6972561990927
 10
4.840840840840841
 20
99.69451438584066
 10
4.902902902902903
 20
99.6918030624024
 10
4.964964964964965
 20
99.68912222812483
 10
5.027027027027027
 20
99.68647188236213
 10
5.089089089089089
 20
99.68385202447588
 10
5.151151151151152
 20
99.68126265383498
 10
5.213213213213214
 20
99.67870376981567
 10
5.275275275275275
 20
99.67617537180155
 10
5.337337337337337
 20
99.67367745918354
 10
5.3993993993994
 20
99.6712100313599
 10
5.461461461461462
 20
99.66877308773627
 10
5.523523523523524
 20
99.66636662772565
 10
5.585585585585586
 20
99.66399065074829
 10
5.647647647647648
 20
99.66164515623186
 10
5.70970970970971
 20
99.65933014361133
 10
5.771771771771772
 20
99.65704561232909
 10
5.833833833833834
 20
99.65479156183477
 10
5.8958958958958965
 20
99.6525679915854
 10
5.957957957957959
 20
99.65037490104535
 10
6.02002002002002
 20
99.64821228968637
 10
6.082082082082082
 20
99.64608015698741
 10
6.1441441441441444
 20
99.6439785024349
 10
6.206206206206207
 20
99.64190732552262
 10
6.268268268268269
 20
99.63986662575162
 10
6.33033033033033
 20
99.63785640263026
 10
6.392392392392392
 20
99.63587665567435
 10
6.454454454454455
 20
99.63392738440697
 10
6.516516516516517
 20
99.63200858835857
 10
6.578578578578579
 20
99.63012026706694
 10
6.640640640640641
 20
99.62826242007718
 10
6.702702702702703
 20
99.62643504694174
 10
6.764764764764765
 20
99.62463814722045
 10
6.826826826826827
 20
99.62287172048045
 10
6.888888888888889
 20
99.6211357662962
 10
6.9509509509509515
 20
99.61943028424957
 10
7.013013013013014
 20
99.61775527392967
 10
7.075075075075075
 20
99.61611073493306
 10
7.137137137137137
 20
99.61449666686354
 10
7.1991991991991995
 20
99.61291306933234
 10
7.261261261261262
 20
99.61135994195796
 10
7.323323323323324
 20
99.60983728436626
 10
7.385385385385386
 20
99.60834509619048
 10
7.4474474474474475
 20
99.60688337707113
 10
7.50950950950951
 20
99.6054521266561
 10
7.571571571571572
 20
99.60405134460062
 10
7.633633633633634
 20
99.60268103056728
 10
7.695695695695696
 20
99.60134118422596
 10
7.7577577577577586
 20
99.6000318052539
 10
7.81981981981982
 20
99.59875289333567
 10
7.881881881881882
 20
99.59750444816324
 10
7.943943943943944
 20
99.59628646943584
 10
8.006006006006006
 20
99.59509895686006
 10
8.068068068068069
 20
99.59394191014988
 10
8.13013013013013
 20
99.59281532902654
 10
8.192192192192193
 20
99.59171921321867
 10
8.254254254254255
 20
99.59065356246221
 10
8.316316316316316
 20
99.5896183765005
 10
8.378378378378379
 20
99.58861365508412
 10
8.44044044044044
 20
99.58763939797106
 10
8.502502502502503
 20
99.58669560492666
 10
8.564564564564565
 20
99.58578227572353
 10
8.626626626626628
 20
99.58489941014167
 10
8.68868868868869
 20
99.58404700796842
 10
8.75075075075075
 20
99.58322506899844
 10
8.812812812812814
 20
99.58243359303371
 10
8.874874874874875
 20
99.58167257988362
 10
8.936936936936938
 20
99.58094202936478
 10
8.998998998999
 20
99.58024194130125
 10
9.06106106106106
 20
99.57957231552437
 10
9.123123123123124
 20
99.57893315187287
 10
9.185185185185185
 20
99.57832445019272
 10
9.247247247247248
 20
99.57774621033738
 10
9.30930930930931
 20
99.57719843216746
 10
9.371371371371373
 20
99.57668111555105
 10
9.433433433433434
 20
99.57619426036355
 10
9.495495495495495
 20
99.57573786648764
 10
9.557557557557558
 20
99.57531193381342
 10
9.61961961961962
 20
99.57491646223825
 10
9.681681681681683
 20
99.57455145166688
 10
9.743743743743744
 20
99.57421690201141
 10
9.805805805805806
 20
99.57391281319121
 10
9.867867867867869
 20
99.57363918513303
 10
9.92992992992993
 20
99.57339601777099
 10
9.991991991991993
 20
99.57318331104646
 10
10.054054054054054
 20
99.57300106490825
 10
10.116116116116116
 20
99.57284927931246
 10
10.178178178178179
 20
99.57272795422247
 10
10.24024024024024
 20
99.5726370896091
 10
10.302302302302303
 20
99.57257668545049
 10
10.364364364364365
 20
99.572546741732
 10
10.426426426426428
 20
99.57254725844653
 10
10.488488488488489
 20
99.5725782355941
 10
10.55055055055055
 20
99.57263967318222
 10
10.612612612612613
 20
99.57273157122567
 10
10.674674674674675
 20
99.57285392974664
 10
10.736736736736738
 20
99.57300674877457
 10
10.7987987987988
 20
99.57319002834622
 10
10.86086086086086
 20
99.57340376850583
 10
10.922922922922924
 20
99.57364796930483
 10
10.984984984984985
 20
99.57392263080207
 10
11.047047047047048
 20
99.5742277530637
 10
11.10910910910911
 20
99.57456333616327
 10
11.171171171171173
 20
99.57492938018156
 10
11.233233233233234
 20
99.57532588520674
 10
11.295295295295295
 20
99.57575285133434
 10
11.357357357357358
 20
99.57621027866723
 10
11.41941941941942
 20
99.5766981673156
 10
11.481481481481483
 20
99.57721651739698
 10
11.543543543543544
 20
99.5777653290362
 10
11.605605605605605
 20
99.57834460236552
 10
11.667667667667668
 20
99.5789543375244
 10
11.72972972972973
 20
99.57959453465979
 10
11.791791791791793
 20
99.58026519392592
 10
11.853853853853854
 20
99.58096631548426
 10
11.915915915915917
 20
99.58169789950378
 10
11.977977977977979
 20
99.58245994616068
 10
12.04004004004004
 20
99.58325245563854
 10
12.102102102102103
 20
99.58407542812826
 10
12.164164164164164
 20
99.5849288638281
 10
12.226226226226228
 20
99.5858127629436
 10
12.288288288288289
 20
99.58672712568774
 10
12.35035035035035
 20
99.58767195228074
 10
12.412412412412413
 20
99.58864724295026
 10
12.474474474474475
 20
99.58965299793121
 10
12.536536536536538
 20
99.59068921746578
 10
12.598598598598599
 20
99.59175590180371
 10
12.66066066066066
 20
99.5928530512019
 10
12.722722722722724
 20
99.59398066592463
 10
12.784784784784785
 20
99.59513874624356
 10
12.846846846846848
 20
99.59632729243765
 10
12.90890890890891
 20
99.5975463047932
 10
12.970970970970972
 20
99.59879578360388
 10
13.033033033033034
 20
99.60007572917064
 10
13.095095095095095
 20
99.60138614180187
 10
13.157157157157158
 20
99.60272702181318
 10
13.21921921921922
 20
99.60409836952758
 10
13.281281281281283
 20
99.60550018527542
 10
13.343343343343344
 20
99.60693246939441
 10
13.405405405405405
 20
99.60839522222955
 10
13.467467467467468
 20
99.6098884441332
 10
13.52952952952953
 20
99.61141213546507
 10
13.591591591591593
 20
99.61296629659222
 10
13.653653653653654
 20
99.61455092788901
 10
13.715715715715717
 20
99.61616602973714
 10
13.777777777777779
 20
99.61781160252573
 10
13.83983983983984
 20
99.61948764665117
 10
13.901901901901903
 20
99.62119416251717
 10
13.963963963963964
 20
99.62293115053482
 10
14.026026026026027
 20
99.62469861112257
 10
14.088088088088089
 20
99.62649654470619
 10
14.15015015015015
 20
99.62832495171872
 10
14.212212212212213
 20
99.6301838326007
 10
14.274274274274275
 20
99.63207318779982
 10
14.336336336336338
 20
99.63399301777127
 10
14.398398398398399
 20
99.63594332297751
 10
14.46046046046046
 20
99.63792410388835
 10
14.522522522522523
 20
99.63993536098093
 10
14.584584584584585
 20
99.64197709473977
 10
14.646646646646648
 20
99.64404930565662
 10
14.70870870870871
 20
99.64615199423076
 10
14.770770770770772
 20
99.64828516096868
 10
14.832832832832834
 20
99.65044880638423
 10
14.894894894894895
 20
99.65264293099858
 10
14.956956956956958
 20
99.65486753534033
 10
15.01901901901902
 20
99.6571226199453
 10
15.081081081081082
 20
99.65940818535677
 10
15.143143143143144
 20
99.66172423212531
 10
15.205205205205205
 20
99.6640707608088
 10
15.267267267267268
 20
99.66644777197253
 10
15.32932932932933
 20
99.6688552661891
 10
15.391391391391393
 20
99.67129324403841
 10
15.453453453453454
 20
99.6737617061078
 10
15.515515515515517
 20
99.67626065299186
 10
15.577577577577578
 20
99.6787900852926
 10
15.63963963963964
 20
99.68135000361929
 10
15.701701701701703
 20
99.68394040858861
 10
15.763763763763764
 20
99.6865613008246
 10
15.825825825825827
 20
99.68921268095855
 10
15.887887887887889
 20
99.69189454962915
 10
15.94994994994995
 20
99.69460690748252
 10
16.01201201201201
 20
99.69734975517196
 10
16.074074074074076
 20
99.7001230933582
 10
16.136136136136138
 20
99.70292692270935
 10
16.1981981981982
 20
99.70576124390082
 10
16.26026026026026
 20
99.70862605761535
 10
16.32232232232232
 20
99.71152136454306
 10
16.384384384384386
 20
99.71444716538139
 10
16.446446446446448
 20
99.71740346083516
 10
16.50850850850851
 20
99.72039025161648
 10
16.57057057057057
 20
99.72340753844487
 10
16.63263263263263
 20
99.72645532204716
 10
16.694694694694697
 20
99.72953360315752
 10
16.756756756756758
 20
99.73264238251748
 10
16.81881881881882
 20
99.73578166087593
 10
16.88088088088088
 20
99.73895143898909
 10
16.942942942942945
 20
99.74215171762052
 10
17.005005005005007
 20
99.7453824975411
 10
17.067067067067068
 20
99.74864377952917
 10
17.12912912912913
 20
99.75193556437031
 10
17.19119119119119
 20
99.75525785285747
 10
17.253253253253256
 20
99.75861064579097
 10
17.315315315315317
 20
99.76199394397844
 10
17.37737737737738
 20
99.76540774823492
 10
17.43943943943944
 20
99.76885205938275
 10
17.5015015015015
 20
99.7723268782516
 10
17.563563563563566
 20
99.7758322056786
 10
17.625625625625627
 20
99.77936804250805
 10
17.68768768768769
 20
99.78293438959177
 10
17.74974974974975
 20
99.78653124778884
 10
17.81181181181181
 20
99.7901586179657
 10
17.873873873873876
 20
99.79381650099617
 10
17.935935935935937
 20
99.79750489776139
 10
17.997997997998
 20
99.80122380914982
 10
18.06006006006006
 20
99.80497323605736
 10
18.12212212212212
 20
99.80875317938721
 10
18.184184184184186
 20
99.81256364004993
 10
18.246246246246248
 20
99.81640461896338
 10
18.30830830830831
 20
99.82027611705286
 10
18.37037037037037
 20
99.8241781352509
 10
18.43243243243243
 20
99.8281106744976
 10
18.494494494494496
 20
99.83207373574012
 10
18.556556556556558
 20
99.83606731993319
 10
18.61861861861862
 20
99.84009142803887
 10
18.68068068068068
 20
99.84414606102648
 10
18.742742742742745
 20
99.84823121987274
 10
18.804804804804807
 20
99.85234690556173
 10
18.866866866866868
 20
99.85649311908487
 10
18.92892892892893
 20
99.86066986144098
 10
18.99099099099099
 20
99.8648771336362
 10
19.053053053053056
 20
99.86911493668397
 10
19.115115115115117
 20
99.87338327160518
 10
19.177177177177178
 20
99.87768213942802
 10
19.23923923923924
 20
99.88201154118802
 10
19.3013013013013
 20
99.88637147792812
 10
19.363363363363366
 20
99.89076195069858
 10
19.425425425425427
 20
99.89518296055704
 10
19.48748748748749
 20
99.89963450856848
 10
19.54954954954955
 20
99.9041165958052
 10
19.61161161161161
 20
99.90862922334692
 10
19.673673673673676
 20
99.91317239228069
 10
19.735735735735737
 20
99.91774610370088
 10
19.7977977977978
 20
99.92235035870928
 10
19.85985985985986
 20
99.92698515841505
 10
19.92192192192192
 20
99.93165050393462
 10
19.983983983983986
 20
99.93634639639183
 10
20.046046046046047
 20
99.9410728369179
 10
20.10810810810811
 20
99.94582982665135
 10
20.17017017017017
 20
99.95061736673814
 10
20.23223223223223
 20
99.95543545833151
 10
20.294294294294296
 20
99.96028410259208
 10
20.356356356356358
 20
99.9651633006879
 10
20.41841841841842
 20
99.97007305379427
 10
20.48048048048048
 20
99.97501336309392
 10
20.542542542542545
 20
99.97998422977692
 10
20.604604604604607
 20
99.9849856550407
 10
20.666666666666668
 20
99.99001764009009
 10
20.72872872872873
 20
99.99508018613717
 10
20.79079079079079
 20
100.00017329440155
 10
20.852852852852855
 20
100.00529696611007
 10
20.914914914914917
 20
100.01045120249695
 10
20.976976976976978
 20
100.01563600480385
 10
21.03903903903904
 20
100.02085137427969
 10
21.1011011011011
 20
100.02609731218084
 10
21.163163163163166
 20
100.03137381977096
 10
21.225225225225227
 20
100.03668089832117
 10
21.28728728728729
 20
100.04201854910984
 10
21.34934934934935
 20
100.04738677342276
 10
21.41141141141141
 20
100.05278557255312
 10
21.473473473473476
 20
100.05821494780142
 10
21.535535535535537
 20
100.06367490047553
 10
21.5975975975976
 20
100.06916543189074
 10
21.65965965965966
 20
100.07468654336962
 10
21.72172172172172
 20
100.08023823624217
 10
21.783783783783786
 20
100.08582051184575
 10
21.845845845845847
 20
100.0914333715251
 10
21.90790790790791
 20
100.09707681663225
 10
21.96996996996997
 20
100.10275084852671
 10
22.03203203203203
 20
100.10845546857526
 10
22.094094094094096
 20
100.11419067815211
 10
22.156156156156158
 20
100.11995647863877
 10
22.21821821821822
 20
100.12575287142424
 10
22.28028028028028
 20
100.13157985790477
 10
22.342342342342345
 20
100.13743743948403
 10
22.404404404404406
 20
100.14332561757308
 10
22.466466466466468
 20
100.14924439359028
 10
22.52852852852853
 20
100.15519376896145
 10
22.59059059059059
 20
100.16117374511975
 10
22.652652652652655
 20
100.16718432350564
 10
22.714714714714717
 20
100.17322550556709
 10
22.776776776776778
 20
100.17929729275927
 10
22.83883883883884
 20
100.1853996865449
 10
22.9009009009009
 20
100.1915326883939
 10
22.962962962962965
 20
100.19769629978374
 10
23.025025025025027
 20
100.20389052219915
 10
23.087087087087088
 20
100.21011535713224
 10
23.14914914914915
 20
100.21637080608252
 10
23.21121121121121
 20
100.2226568705569
 10
23.273273273273276
 20
100.22897355206956
 10
23.335335335335337
 20
100.23532085214221
 10
23.3973973973974
 20
100.24169877230379
 10
23.45945945945946
 20
100.24810731409072
 10
23.52152152152152
 20
100.25454647904674
 10
23.583583583583586
 20
100.26101626872303
 10
23.645645645645647
 20
100.26751668467803
 10
23.70770770770771
 20
100.27404772847765
 10
23.76976976976977
 20
100.28060940169516
 10
23.831831831831835
 20
100.28720170591123
 10
23.893893893893896
 20
100.29382464271389
 10
23.955955955955957
 20
100.30047821369848
 10
24.01801801801802
 20
100.30716242046783
 10
24.08008008008008
 20
100.31387726463208
 10
24.142142142142145
 20
100.3206227478088
 10
24.204204204204206
 20
100.32739887162289
 10
24.266266266266268
 20
100.33420563770666
 10
24.32832832832833
 20
100.3410430476998
 10
24.39039039039039
 20
100.34791110324937
 10
24.452452452452455
 20
100.35480980600981
 10
24.514514514514516
 20
100.361739157643
 10
24.576576576576578
 20
100.36869915981809
 10
24.63863863863864
 20
100.3756898142117
 10
24.7007007007007
 20
100.38271112250784
 10
24.762762762762765
 20
100.38976308639785
 10
24.824824824824827
 20
100.39684570758052
 10
24.886886886886888
 20
100.40395898776191
 10
24.94894894894895
 20
100.41110292865561
 10
25.01101101101101
 20
100.4182775319825
 10
25.073073073073076
 20
100.42548279947088
 10
25.135135135135137
 20
100.43271873285643
 10
25.197197197197198
 20
100.4399853338822
 10
25.25925925925926
 20
100.44728260429869
 10
25.32132132132132
 20
100.45461054586372
 10
25.383383383383386
 20
100.46196916034246
 10
25.445445445445447
 20
100.46935844950765
 10
25.50750750750751
 20
100.4767784151392
 10
25.56956956956957
 20
100.48422905902456
 10
25.631631631631635
 20
100.49171038295849
 10
25.693693693693696
 20
100.4992223887432
 10
25.755755755755757
 20
100.50676507818828
 10
25.81781781781782
 20
100.51433845311061
 10
25.87987987987988
 20
100.52194251533463
 10
25.941941941941945
 20
100.52957726669202
 10
26.004004004004006
 20
100.53724270902197
 10
26.066066066066067
 20
100.54493884417096
 10
26.12812812812813
 20
100.55266567399298
 10
26.19019019019019
 20
100.56042320034932
 10
26.252252252252255
 20
100.56821142510867
 10
26.314314314314316
 20
100.57603035014718
 10
26.376376376376378
 20
100.58387997734832
 10
26.43843843843844
 20
100.591760308603
 10
26.5005005005005
 20
100.59967134580955
 10
26.562562562562565
 20
100.60761309087364
 10
26.624624624624627
 20
100.61558554570834
 10
26.686686686686688
 20
100.62358871223415
 10
26.74874874874875
 20
100.631622592379
 10
26.81081081081081
 20
100.63968718807813
 10
26.872872872872875
 20
100.64778250127422
 10
26.934934934934937
 20
100.65590853391738
 10
26.996996996996998
 20
100.66406528796507
 10
27.05905905905906
 20
100.67225276538221
 10
27.12112112112112
 20
100.68047096814107
 10
27.183183183183186
 20
100.68871989822132
 10
27.245245245245247
 20
100.69699955761004
 10
27.30730730730731
 20
100.70530994830175
 10
27.36936936936937
 20
100.71365107229833
 10
27.431431431431434
 20
100.72202293160913
 10
27.493493493493496
 20
100.73042552825076
 10
27.555555555555557
 20
100.7388588642474
 10
27.61761761761762
 20
100.7473229416305
 10
27.67967967967968
 20
100.75581776243904
 10
27.741741741741745
 20
100.76434332871928
 10
27.803803803803806
 20
100.772899642525
 10
27.865865865865867
 20
100.78148670591732
 10
27.92792792792793
 20
100.79010452096476
 10
27.98998998998999
 20
100.79875308974327
 10
28.052052052052055
 20
100.80743241433625
 10
28.114114114114116
 20
100.81614249683443
 10
28.176176176176178
 20
100.824883339336
 10
28.23823823823824
 20
100.83365494394654
 10
28.3003003003003
 20
100.84245731277903
 10
28.362362362362365
 20
100.85129044795393
 10
28.424424424424426
 20
100.86015435159901
 10
28.486486486486488
 20
100.86904902584952
 10
28.54854854854855
 20
100.87797447284808
 10
28.61061061061061
 20
100.88693069474476
 10
28.672672672672675
 20
100.89591769369706
 10
28.734734734734737
 20
100.90493547186983
 10
28.796796796796798
 20
100.91398403143536
 10
28.85885885885886
 20
100.92306337457337
 10
28.92092092092092
 20
100.93217350347102
 10
28.982982982982985
 20
100.9413144203228
 10
29.045045045045047
 20
100.9504861273307
 10
29.107107107107108
 20
100.9596886267041
 10
29.16916916916917
 20
100.96892192065977
 10
29.231231231231234
 20
100.97818601142195
 10
29.293293293293296
 20
100.98748090122228
 10
29.355355355355357
 20
100.99680659229978
 10
29.41741741741742
 20
101.00616308690094
 10
29.47947947947948
 20
101.01555038727966
 10
29.541541541541545
 20
101.02496849569722
 10
29.603603603603606
 20
101.03441741442236
 10
29.665665665665667
 20
101.04389714573124
 10
29.72772772772773
 20
101.05340769190745
 10
29.78978978978979
 20
101.062949055242
 10
29.851851851851855
 20
101.07252123803329
 10
29.913913913913916
 20
101.08212424258718
 10
29.975975975975977
 20
101.09175807121692
 10
30.03803803803804
 20
101.10142272624321
 10
30.1001001001001
 20
101.11111820999423
 10
30.162162162162165
 20
101.12084452480548
 10
30.224224224224226
 20
101.13060167301994
 10
30.286286286286288
 20
101.140389656988
 10
30.34834834834835
 20
101.15020847906756
 10
30.41041041041041
 20
101.16005814162376
 10
30.472472472472475
 20
101.16993864702944
 10
30.534534534534536
 20
101.17984999766462
 10
30.596596596596598
 20
101.18979219591687
 10
30.65865865865866
 20
101.1997652441812
 10
30.72072072072072
 20
101.20976914485995
 10
30.782782782782785
 20
101.21980390036303
 10
30.844844844844847
 20
101.22986951310774
 10
30.906906906906908
 20
101.23996598551871
 10
30.96896896896897
 20
101.25009332002814
 10
31.031031031031034
 20
101.2602515190756
 10
31.093093093093096
 20
101.27044058510812
 10
31.155155155155157
 20
101.28066052058007
 10
31.217217217217218
 20
101.29091132795342
 10
31.27927927927928
 20
101.30119300969751
 10
31.341341341341344
 20
101.31150556828904
 10
31.403403403403406
 20
101.32184900621222
 10
31.465465465465467
 20
101.33222332595865
 10
31.52752752752753
 20
101.34262853002745
 10
31.58958958958959
 20
101.3530646209252
 10
31.651651651651655
 20
101.36353160116572
 10
31.713713713713716
 20
101.37402947327048
 10
31.775775775775777
 20
101.38455823976834
 10
31.83783783783784
 20
101.39511790319553
 10
31.8998998998999
 20
101.40570846609582
 10
31.961961961961965
 20
101.41632993102031
 10
32.02402402402402
 20
101.42698230052765
 10
32.08608608608609
 20
101.43766557718389
 10
32.14814814814815
 20
101.44837976356258
 10
32.210210210210214
 20
101.4591248622446
 10
32.272272272272275
 20
101.46990087581834
 10
32.334334334334336
 20
101.48070780687966
 10
32.3963963963964
 20
101.49154565803191
 10
32.45845845845846
 20
101.5024144318857
 10
32.52052052052052
 20
101.51331413105929
 10
32.58258258258258
 20
101.52424475817834
 10
32.64464464464464
 20
101.5352063158759
 10
32.70670670670671
 20
101.54619880679248
 10
32.76876876876877
 20
101.55722223357604
 10
32.830830830830834
 20
101.56827659888215
 10
32.892892892892895
 20
101.57936190537357
 10
32.95495495495496
 20
101.59047815572073
 10
33.01701701701702
 20
101.60162535260137
 10
33.07907907907908
 20
101.61280349870079
 10
33.14114114114114
 20
101.62401259671167
 10
33.2032032032032
 20
101.63525264933416
 10
33.26526526526526
 20
101.64652365927596
 10
33.32732732732733
 20
101.65782562925203
 10
33.38938938938939
 20
101.66915856198501
 10
33.451451451451454
 20
101.6805224602049
 10
33.513513513513516
 20
101.69191732664906
 10
33.57557557557558
 20
101.70334316406245
 10
33.63763763763764
 20
101.7147999751975
 10
33.6996996996997
 20
101.72628776281398
 10
33.76176176176176
 20
101.73780652967922
 10
33.82382382382382
 20
101.74935627856796
 10
33.88588588588589
 20
101.76093701226246
 10
33.94794794794795
 20
101.7725487335524
 10
34.010010010010014
 20
101.78419144523487
 10
34.072072072072075
 20
101.79586515011458
 10
34.134134134134136
 20
101.80756985100358
 10
34.1961961961962
 20
101.81930555072141
 10
34.25825825825826
 20
101.83107225209507
 10
34.32032032032032
 20
101.84286995795911
 10
34.38238238238238
 20
101.85469867115542
 10
34.44444444444444
 20
101.86655839453347
 10
34.50650650650651
 20
101.8784491309501
 10
34.56856856856857
 20
101.89037088326977
 10
34.630630630630634
 20
101.90232365436422
 10
34.692692692692695
 20
101.91430744711282
 10
34.75475475475476
 20
101.92632226440232
 10
34.81681681681682
 20
101.93836810912701
 10
34.87887887887888
 20
101.95044498418856
 10
34.94094094094094
 20
101.96255289249625
 10
35.003003003003
 20
101.97469183696673
 10
35.06506506506506
 20
101.98686182052411
 10
35.12712712712713
 20
101.99906284610005
 10
35.18918918918919
 20
102.01129491663373
 10
35.251251251251254
 20
102.02355803507164
 10
35.313313313313316
 20
102.03585220436791
 10
35.37537537537538
 20
102.04817742748408
 10
35.43743743743744
 20
102.06053370738915
 10
35.4994994994995
 20
102.07292104705967
 10
35.56156156156156
 20
102.08533944947958
 10
35.62362362362362
 20
102.09778891764044
 10
35.68568568568569
 20
102.11026945454115
 10
35.74774774774775
 20
102.12278106318813
 10
35.80980980980981
 20
102.13532374659538
 10
35.871871871871875
 20
102.14789750778424
 10
35.933933933933936
 20
102.16050234978364
 10
35.995995995996
 20
102.17313827563
 10
36.05805805805806
 20
102.18580528836712
 10
36.12012012012012
 20
102.19850339104646
 10
36.18218218218218
 20
102.21123258672678
 10
36.24424424424424
 20
102.22399287847448
 10
36.30630630630631
 20
102.23678426936338
 10
36.36836836836837
 20
102.24960676247481
 10
36.430430430430434
 20
102.26246036089755
 10
36.492492492492495
 20
102.27534506772797
 10
36.55455455455456
 20
102.28826088606984
 10
36.61661661661662
 20
102.30120781903442
 10
36.67867867867868
 20
102.31418586974057
 10
36.74074074074074
 20
102.32719504131454
 10
36.8028028028028
 20
102.34023533689016
 10
36.86486486486486
 20
102.35330675960866
 10
36.92692692692693
 20
102.36640931261887
 10
36.98898898898899
 20
102.379542999077
 10
37.051051051051054
 20
102.3927078221469
 10
37.113113113113116
 20
102.40590378499984
 10
37.17517517517518
 20
102.41913089081457
 10
37.23723723723724
 20
102.43238914277741
 10
37.2992992992993
 20
102.4456785440821
 10
37.36136136136136
 20
102.45899909793
 10
37.42342342342342
 20
102.47235080752982
 10
37.48548548548549
 20
102.48573367609795
 10
37.54754754754755
 20
102.49914770685815
 10
37.60960960960961
 20
102.51259290304169
 10
37.671671671671675
 20
102.52606926788748
 10
37.733733733733736
 20
102.53957680464181
 10
37.7957957957958
 20
102.55311551655849
 10
37.85785785785786
 20
102.56668540689891
 10
37.91991991991992
 20
102.58028647893188
 10
37.98198198198198
 20
102.59391873593383
 10
38.04404404404404
 20
102.60758218118859
 10
38.10610610610611
 20
102.62127681798755
 10
38.16816816816817
 20
102.63500264962967
 10
38.230230230230234
 20
102.64875967942133
 10
38.292292292292295
 20
102.66254791067648
 10
38.354354354354356
 20
102.67636734671662
 10
38.41641641641642
 20
102.69021799087064
 10
38.47847847847848
 20
102.70409984647505
 10
38.54054054054054
 20
102.71801291687392
 10
38.6026026026026
 20
102.73195720541868
 10
38.66466466466466
 20
102.74593271546847
 10
38.72672672672673
 20
102.75993945038978
 10
38.78878878878879
 20
102.77397741355675
 10
38.850850850850854
 20
102.78804660835097
 10
38.912912912912915
 20
102.80214703816158
 10
38.97497497497498
 20
102.81627870638526
 10
39.03703703703704
 20
102.8304416164262
 10
39.0990990990991
 20
102.84463577169605
 10
39.16116116116116
 20
102.85886117561408
 10
39.22322322322322
 20
102.87311783160708
 10
39.28528528528529
 20
102.88740574310931
 10
39.34734734734735
 20
102.9017249135626
 10
39.40940940940941
 20
102.91607534641632
 10
39.471471471471475
 20
102.93045704512734
 10
39.533533533533536
 20
102.94487001316007
 10
39.5955955955956
 20
102.95931425398648
 10
39.65765765765766
 20
102.973789771086
 10
39.71971971971972
 20
102.98829656794574
 10
39.78178178178178
 20
103.00283464806016
 10
39.84384384384384
 20
103.01740401493136
 10
39.90590590590591
 20
103.032004672069
 10
39.96796796796797
 20
103.04663662299019
 10
40.030030030030034
 20
103.06129987121967
 10
40.092092092092095
 20
103.07599442028966
 10
40.154154154154156
 20
103.09072027373993
 10
40.21621621621622
 20
103.10547743511786
 10
40.27827827827828
 20
103.12026590797818
 10
40.34034034034034
 20
103.13508569588343
 10
40.4024024024024
 20
103.1499368024035
 10
40.46446446446446
 20
103.16481923111586
 10
40.52652652652653
 20
103.17973298560555
 10
40.58858858858859
 20
103.19467806946521
 10
40.650650650650654
 20
103.2096544862949
 10
40.712712712712715
 20
103.22466223970231
 10
40.77477477477478
 20
103.2397013333027
 10
40.83683683683684
 20
103.25477177071882
 10
40.8988988988989
 20
103.26987355558099
 10
40.96096096096096
 20
103.28500669152713
 10
41.02302302302302
 20
103.30017118220259
 10
41.08508508508509
 20
103.31536703126041
 10
41.14714714714715
 20
103.3305942423611
 10
41.20920920920921
 20
103.3458528191728
 10
41.271271271271274
 20
103.3611427653711
 10
41.333333333333336
 20
103.37646408463924
 10
41.3953953953954
 20
103.39181678066795
 10
41.45745745745746
 20
103.40720085715556
 10
41.51951951951952
 20
103.42261631780796
 10
41.58158158158158
 20
103.43806316633855
 10
41.64364364364364
 20
103.45354140646837
 10
41.70570570570571
 20
103.46905104192602
 10
41.76776776776777
 20
103.48459207644753
 10
41.82982982982983
 20
103.50016451377662
 10
41.891891891891895
 20
103.51576835766461
 10
41.953953953953956
 20
103.5314036118702
 10
42.01601601601602
 20
103.54707028015984
 10
42.07807807807808
 20
103.56276836630754
 10
42.14014014014014
 20
103.57849787409471
 10
42.2022022022022
 20
103.59425880731051
 10
42.26426426426426
 20
103.61005116975157
 10
42.32632632632633
 20
103.62587496522214
 10
42.38838838838839
 20
103.64173019753399
 10
42.450450450450454
 20
103.65761687050652
 10
42.512512512512515
 20
103.67353498796668
 10
42.57457457457458
 20
103.68948455374898
 10
42.63663663663664
 20
103.70546557169554
 10
42.6986986986987
 20
103.72147804565601
 10
42.76076076076076
 20
103.73752197948768
 10
42.82282282282282
 20
103.75359737705533
 10
42.88488488488489
 20
103.76970424223144
 10
42.94694694694695
 20
103.7858425788959
 10
43.00900900900901
 20
103.80201239093638
 10
43.071071071071074
 20
103.81821368224799
 10
43.133133133133136
 20
103.83444645673349
 10
43.1951951951952
 20
103.85071071830318
 10
43.25725725725726
 20
103.86700647087493
 10
43.31931931931932
 20
103.88333371837432
 10
43.38138138138138
 20
103.89969246473437
 10
43.44344344344344
 20
103.91608271389576
 10
43.50550550550551
 20
103.93250446980672
 10
43.56756756756757
 20
103.94895773642317
 10
43.62962962962963
 20
103.9654425177085
 10
43.691691691691695
 20
103.98195881763367
 10
43.753753753753756
 20
103.99850664017744
 10
43.81581581581582
 20
104.0150859893259
 10
43.87787787787788
 20
104.03169686907292
 10
43.93993993993994
 20
104.04833928341988
 10
44.002002002002
 20
104.0650132363758
 10
44.06406406406406
 20
104.08171873195728
 10
44.12612612612613
 20
104.09845577418848
 10
44.18818818818819
 20
104.11522436710122
 10
44.250250250250254
 20
104.13202451473491
 10
44.312312312312315
 20
104.14885622113651
 10
44.374374374374376
 20
104.16571949036064
 10
44.43643643643644
 20
104.1826143264695
 10
44.4984984984985
 20
104.19954073353288
 10
44.56056056056056
 20
104.21649871562825
 10
44.62262262262262
 20
104.23348827684056
 10
44.68468468468469
 20
104.25050942126246
 10
44.74674674674675
 20
104.26756215299419
 10
44.80880880880881
 20
104.28464647614355
 10
44.870870870870874
 20
104.30176239482604
 10
44.932932932932935
 20
104.31890991316469
 10
44.994994994995
 20
104.33608903529021
 10
45.05705705705706
 20
104.35329976534085
 10
45.11911911911912
 20
104.37054210746253
 10
45.18118118118118
 20
104.38781606580879
 10
45.24324324324324
 20
104.4051216445407
 10
45.30530530530531
 20
104.42245884782706
 10
45.36736736736737
 20
104.43982767984424
 10
45.42942942942943
 20
104.45722814477621
 10
45.491491491491495
 20
104.47466024681457
 10
45.553553553553556
 20
104.49212399015856
 10
45.61561561561562
 20
104.50961937901504
 10
45.67767767767768
 20
104.52714641759847
 10
45.73973973973974
 20
104.54470511013095
 10
45.8018018018018
 20
104.56229546084218
 10
45.86386386386386
 20
104.57991747396956
 10
45.92592592592593
 20
104.59757115375801
 10
45.98798798798799
 20
104.61525650446019
 10
46.050050050050054
 20
104.63297353033626
 10
46.112112112112115
 20
104.65072223565419
 10
46.174174174174176
 20
104.66850262468937
 10
46.23623623623624
 20
104.68631470172495
 10
46.2982982982983
 20
104.70415847105174
 10
46.36036036036036
 20
104.72203393696812
 10
46.42242242242242
 20
104.73994110378008
 10
46.48448448448449
 20
104.75787997580132
 10
46.54654654654655
 20
104.77585055735311
 10
46.60860860860861
 20
104.79385285276446
 10
46.670670670670674
 20
104.81188686637189
 10
46.732732732732735
 20
104.82995260251967
 10
46.7947947947948
 20
104.8480500655596
 10
46.85685685685686
 20
104.86617925985122
 10
46.91891891891892
 20
104.88434018976172
 10
46.98098098098098
 20
104.90253285966584
 10
47.04304304304304
 20
104.92075727394608
 10
47.10510510510511
 20
104.93901343699245
 10
47.16716716716717
 20
104.95730135320274
 10
47.22922922922923
 20
104.97562102698232
 10
47.291291291291294
 20
104.99397246274425
 10
47.353353353353356
 20
105.01235566490921
 10
47.41541541541542
 20
105.03077063790549
 10
47.47747747747748
 20
105.04921738616916
 10
47.53953953953954
 20
105.06769591414378
 10
47.6016016016016
 20
105.08620622628071
 10
47.66366366366367
 20
105.1047483270389
 10
47.72572572572573
 20
105.12332222088499
 10
47.78778778778779
 20
105.14192791229321
 10
47.84984984984985
 20
105.16056540574552
 10
47.911911911911915
 20
105.17923470573147
 10
47.973973973973976
 20
105.1979358167484
 10
48.03603603603604
 20
105.21666874330118
 10
48.0980980980981
 20
105.23543348990238
 10
48.16016016016016
 20
105.25423006107228
 10
48.22222222222222
 20
105.2730584613388
 10
48.28428428428429
 20
105.2919186952375
 10
48.34634634634635
 20
105.31081076731162
 10
48.40840840840841
 20
105.32973468211212
 10
48.470470470470474
 20
105.34869044419757
 10
48.532532532532535
 20
105.36767805813425
 10
48.5945945945946
 20
105.38669752849607
 10
48.65665665665666
 20
105.40574885986466
 10
48.71871871871872
 20
105.42483205682926
 10
48.78078078078078
 20
105.44394712398692
 10
48.84284284284284
 20
105.46309406594223
 10
48.90490490490491
 20
105.48227288730747
 10
48.96696696696697
 20
105.50148359270268
 10
49.02902902902903
 20
105.52072618675551
 10
49.091091091091094
 20
105.54000067410139
 10
49.153153153153156
 20
105.55930705938327
 10
49.21521521521522
 20
105.5786453472519
 10
49.27727727727728
 20
105.59801554236573
 10
49.33933933933934
 20
105.61741764939082
 10
49.4014014014014
 20
105.63685167300095
 10
49.46346346346347
 20
105.6563176178776
 10
49.52552552552553
 20
105.67581548870997
 10
49.58758758758759
 20
105.69534529019485
 10
49.64964964964965
 20
105.71490702703683
 10
49.711711711711715
 20
105.73450070394811
 10
49.773773773773776
 20
105.75412632564867
 10
49.83583583583584
 20
105.77378389686608
 10
49.8978978978979
 20
105.79347342233571
 10
49.95995995995996
 20
105.81319490680055
 10
50.02202202202202
 20
105.83294835501131
 10
50.08408408408409
 20
105.85273377172645
 10
50.14614614614615
 20
105.87255116171205
 10
50.20820820820821
 20
105.89240052974195
 10
50.270270270270274
 20
105.91228188059772
 10
50.332332332332335
 20
105.93219521906848
 10
50.394394394394396
 20
105.95214054995121
 10
50.45645645645646
 20
105.97211787805064
 10
50.51851851851852
 20
105.99212720817899
 10
50.58058058058058
 20
106.01216854515637
 10
50.64264264264264
 20
106.03224189381059
 10
50.70470470470471
 20
106.05234725897706
 10
50.76676676676677
 20
106.07248464549902
 10
50.82882882882883
 20
106.09265405822732
 10
50.890890890890894
 20
106.11285550202068
 10
50.952952952952955
 20
106.13308898174533
 10
51.01501501501502
 20
106.15335450227535
 10
51.07707707707708
 20
106.17365206849259
 10
51.13913913913914
 20
106.19398168528643
 10
51.2012012012012
 20
106.21434335755414
 10
51.26326326326327
 20
106.23473709020068
 10
51.32532532532533
 20
106.25516288813866
 10
51.38738738738739
 20
106.27562075628843
 10
51.44944944944945
 20
106.2961106995782
 10
51.511511511511515
 20
106.31663272294371
 10
51.573573573573576
 20
106.3371868313286
 10
51.63563563563564
 20
106.35777302968405
 10
51.6976976976977
 20
106.37839132296916
 10
51.75975975975976
 20
106.3990417161507
 10
51.82182182182182
 20
106.41972421420313
 10
51.88388388388389
 20
106.44043882210862
 10
51.94594594594595
 20
106.46118554485717
 10
52.00800800800801
 20
106.48196438744647
 10
52.070070070070074
 20
106.5027753548819
 10
52.132132132132135
 20
106.5236184521767
 10
52.194194194194196
 20
106.54449368435174
 10
52.25625625625626
 20
106.56540105643565
 10
52.31831831831832
 20
106.5863405734648
 10
52.38038038038038
 20
106.60731224048335
 10
52.44244244244244
 20
106.62831606254322
 10
52.50450450450451
 20
106.64935204470395
 10
52.56656656656657
 20
106.67042019203295
 10
52.62862862862863
 20
106.69152050960535
 10
52.690690690690694
 20
106.71265300250398
 10
52.752752752752755
 20
106.73381767581948
 10
52.81481481481482
 20
106.75501453465024
 10
52.87687687687688
 20
106.77624358410232
 10
52.93893893893894
 20
106.79750482928965
 10
53.001001001001
 20
106.81879827533386
 10
53.06306306306307
 20
106.8401239273643
 10
53.12512512512513
 20
106.86148179051814
 10
53.18718718718719
 20
106.88287186994033
 10
53.24924924924925
 20
106.90429417078344
 10
53.311311311311314
 20
106.92574869820801
 10
53.373373373373376
 20
106.94723545738218
 10
53.43543543543544
 20
106.96875445348185
 10
53.4974974974975
 20
106.99030569169084
 10
53.55955955955956
 20
107.01188917720059
 10
53.62162162162162
 20
107.03350491521037
 10
53.68368368368369
 20
107.05515291092719
 10
53.74574574574575
 20
107.07683316956583
 10
53.80780780780781
 20
107.09854569634895
 10
53.86986986986987
 20
107.1202904965068
 10
53.931931931931935
 20
107.1420675752775
 10
53.993993993993996
 20
107.16387693790698
 10
54.05605605605606
 20
107.18571858964891
 10
54.11811811811812
 20
107.20759253576468
 10
54.18018018018018
 20
107.22949878152359
 10
54.24224224224224
 20
107.2514373322026
 10
54.30430430430431
 20
107.27340819308652
 10
54.36636636636637
 20
107.29541136946791
 10
54.42842842842843
 20
107.31744686664716
 10
54.490490490490494
 20
107.33951468993236
 10
54.552552552552555
 20
107.36161484463945
 10
54.61461461461462
 20
107.38374733609218
 10
54.67667667667668
 20
107.40591216962203
 10
54.73873873873874
 20
107.42810935056833
 10
54.8008008008008
 20
107.45033888427811
 10
54.86286286286287
 20
107.47260077610632
 10
54.92492492492493
 20
107.4948950314156
 10
54.98698698698699
 20
107.51722165557642
 10
55.04904904904905
 20
107.53958065396709
 10
55.111111111111114
 20
107.56197203197364
 10
55.173173173173176
 20
107.58439579498999
 10
55.23523523523524
 20
107.60685194841774
 10
55.2972972972973
 20
107.6293404976664
 10
55.35935935935936
 20
107.6518614481533
 10
55.42142142142142
 20
107.67441480530347
 10
55.48348348348349
 20
107.69700057454976
 10
55.54554554554555
 20
107.71961876133297
 10
55.60760760760761
 20
107.7422693711015
 10
55.66966966966967
 20
107.76495240931176
 10
55.731731731731735
 20
107.78766788142782
 10
55.793793793793796
 20
107.8104157929216
 10
55.85585585585586
 20
107.83319614927295
 10
55.91791791791792
 20
107.85600895596936
 10
55.97997997997998
 20
107.87885421850628
 10
56.04204204204204
 20
107.90173194238683
 10
56.10410410410411
 20
107.92464213312213
 10
56.16616616616617
 20
107.947584796231
 10
56.22822822822823
 20
107.97055993724005
 10
56.290290290290294
 20
107.99356756168383
 10
56.352352352352355
 20
108.01660767510465
 10
56.414414414414416
 20
108.03968028305268
 10
56.47647647647648
 20
108.06278539108585
 10
56.53853853853854
 20
108.08592300476998
 10
56.6006006006006
 20
108.10909312967873
 10
56.66266266266267
 20
108.13229577139349
 10
56.72472472472473
 20
108.15553093550359
 10
56.78678678678679
 20
108.17879862760624
 10
56.84884884884885
 20
108.20209885330625
 10
56.910910910910914
 20
108.22543161821658
 10
56.972972972972975
 20
108.24879692795777
 10
57.03503503503504
 20
108.27219478815836
 10
57.0970970970971
 20
108.29562520445462
 10
57.15915915915916
 20
108.31908818249074
 10
57.22122122122122
 20
108.34258372791875
 10
57.28328328328329
 20
108.36611184639845
 10
57.34534534534535
 20
108.38967254359765
 10
57.40740740740741
 20
108.41326582519174
 10
57.46946946946947
 20
108.43689169686427
 10
57.531531531531535
 20
108.46055016430635
 10
57.593593593593596
 20
108.48424123321722
 10
57.65565565565566
 20
108.50796490930374
 10
57.71771771771772
 20
108.53172119828075
 10
57.77977977977978
 20
108.55551010587088
 10
57.84184184184184
 20
108.57933163780471
 10
57.90390390390391
 20
108.60318579982057
 10
57.96596596596597
 20
108.62707259766476
 10
58.02802802802803
 20
108.65099203709134
 10
58.090090090090094
 20
108.67494412386223
 10
58.152152152152155
 20
108.69892886374738
 10
58.214214214214216
 20
108.72294626252439
 10
58.27627627627628
 20
108.74699632597886
 10
58.33833833833834
 20
108.77107905990421
 10
58.4004004004004
 20
108.79519447010172
 10
58.46246246246247
 20
108.81934256238064
 10
58.52452452452453
 20
108.84352334255796
 10
58.58658658658659
 20
108.86773681645859
 10
58.64864864864865
 20
108.89198298991535
 10
58.710710710710714
 20
108.91626186876893
 10
58.772772772772775
 20
108.94057345886786
 10
58.83483483483484
 20
108.96491776606852
 10
58.8968968968969
 20
108.98929479623534
 10
58.95895895895896
 20
109.01370455524041
 10
59.02102102102102
 20
109.03814704896386
 10
59.08308308308309
 20
109.06262228329363
 10
59.14514514514515
 20
109.08713026412566
 10
59.20720720720721
 20
109.11167099736353
 10
59.26926926926927
 20
109.13624448891902
 10
59.331331331331334
 20
109.16085074471154
 10
59.393393393393396
 20
109.18548977066855
 10
59.45545545545546
 20
109.2101615727254
 10
59.51751751751752
 20
109.23486615682525
 10
59.57957957957958
 20
109.25960352891916
 10
59.64164164164164
 20
109.28437369496622
 10
59.70370370370371
 20
109.30917666093323
 10
59.76576576576577
 20
109.33401243279509
 10
59.82782782782783
 20
109.35888101653443
 10
59.88988988988989
 20
109.38378241814188
 10
59.951951951951955
 20
109.40871664361593
 10
60.014014014014016
 20
109.43368369896304
 10
60.07607607607608
 20
109.45868359019748
 10
60.13813813813814
 20
109.48371632334154
 10
60.2002002002002
 20
109.50878190442536
 10
60.26226226226227
 20
109.533880339487
 10
60.32432432432433
 20
109.55901163457243
 10
60.38638638638639
 20
109.5841757957355
 10
60.44844844844845
 20
109.6093728290381
 10
60.510510510510514
 20
109.63460274054985
 10
60.572572572572575
 20
109.6598655363485
 10
60.63463463463464
 20
109.68516122251957
 10
60.6966966966967
 20
109.71048980515654
 10
60.75875875875876
 20
109.73585129036086
 10
60.82082082082082
 20
109.76124568424181
 10
60.88288288288289
 20
109.78667299291676
 10
60.94494494494495
 20
109.81213322251081
 10
61.00700700700701
 20
109.83762637915713
 10
61.06906906906907
 20
109.8631524689968
 10
61.131131131131134
 20
109.88871149817878
 10
61.193193193193196
 20
109.91430347286
 10
61.25525525525526
 20
109.9399283992053
 10
61.31731731731732
 20
109.96558628338757
 10
61.37937937937938
 20
109.99127713158747
 10
61.44144144144144
 20
110.01700094999369
 10
61.50350350350351
 20
110.04275774480287
 10
61.56556556556557
 20
110.06854752221962
 10
61.62762762762763
 20
110.09437028845637
 10
61.68968968968969
 20
110.12022604973363
 10
61.751751751751755
 20
110.1461148122798
 10
61.813813813813816
 20
110.17203658233124
 10
61.87587587587588
 20
110.19799136613223
 10
61.93793793793794
 20
110.22397916993508
 10
62.0
 20
110.24999999999999
  0
CIRCLE
  5
A9
330
17
100
AcDbEntity
  8
IDEALIZED_POINTS
100
AcDbCircle
 10
10.394342607723985
 20
99.57254318815268
 30
0.0
 40
0.186
  0
TEXT
  5
AA
330
17
100
AcDbEntity
  8
ANNOTATIONS
100
AcDbText
 10
10.766342607723985
 20
98.45654318815268
 30
0.0
 40
0.744
  1
V_i
100
AcDbText
  0
CIRCLE
  5
AB
330
17
100
AcDbEntity
  8
IDEALIZED_POINTS
100
AcDbCircle
 10
31.20518862512966
 20
101.28892215018443
 30
0.0
 40
0.186
  0
TEXT
  5
AC
330
17
100
AcDbEntity
  8
ANNOTATIONS
100
AcDbText
 10
31.57718862512966
 20
99.05692215018443
 30
0.0
 40
0.744
  1
S_i
100
AcDbText
  0
CIRCLE
  5
AD
330
17
100
AcDbEntity
  8
IDEALIZED_POINTS
100
AcDbCircle
 10
31.20518862512966
 20
105.15892231302547
 30
0.0
 40
0.186
  0
TEXT
  5
AE
330
17
100
AcDbEntity
  8
ANNOTATIONS
100
AcDbText
 10
31.57718862512966
 20
106.64692231302547
 30
0.0
 40
0.744
  1
P_i
100
AcDbText
  0
TEXT
  5
AF
330
17
100
AcDbEntity
  8
POINT_LEGEND
100
AcDbText
 10
0.0
 20
84.53990836956005
 30
0.0
 40
0.744
  1
ID
100
AcDbText
  0
TEXT
  5
B0
330
17
100
AcDbEntity
  8
POINT_LEGEND
100
AcDbText
 10
6.2
 20
84.53990836956005
 30
0.0
 40
0.744
  1
POINT
100
AcDbText
  0
TEXT
  5
B1
330
17
100
AcDbEntity
  8
POINT_LEGEND
100
AcDbText
 10
32.24
 20
84.53990836956005
 30
0.0
 40
0.744
  1
X
100
AcDbText
  0
TEXT
  5
B2
330
17
100
AcDbEntity
  8
POINT_LEGEND
100
AcDbText
 10
47.12
 20
84.53990836956005
 30
0.0
 40
0.744
  1
Y
100
AcDbText
  0
LINE
  5
B3
330
17
100
AcDbEntity
  8
POINT_LEGEND
100
AcDbLine
 10
0.0
 20
84.27950836956005
 30
0.0
 11
62.0
 21
84.27950836956005
 31
0.0
  0
TEXT
  5
B4
330
17
100
AcDbEntity
  8
POINT_LEGEND
100
AcDbText
 10
0.0
 20
83.27510836956006
 30
0.0
 40
0.744
  1
A
100
AcDbText
  0
TEXT
  5
B5
330
17
100
AcDbEntity
  8
POINT_LEGEND
100
AcDbText
 10
6.2
 20
83.27510836956006
 30
0.0
 40
0.744
  1
Left support
100
AcDbText
  0
TEXT
  5
B6
330
17
100
AcDbEntity
  8
POINT_LEGEND
100
AcDbText
 10
32.24
 20
83.27510836956006
 30
0.0
 40
0.744
  1
0.00
100
AcDbText
  0
TEXT
  5
B7
330
17
100
AcDbEntity
  8
POINT_LEGEND
100
AcDbText
 10
47.12
 20
83.27510836956006
 30
0.0
 40
0.744
  1
100.00
100
AcDbText
  0
TEXT
  5
B8
330
17
100
AcDbEntity
  8
POINT_LEGEND
100
AcDbText
 10
0.0
 20
82.01030836956005
 30
0.0
 40
0.744
  1
B
100
AcDbText
  0
TEXT
  5
B9
330
17
100
AcDbEntity
  8
POINT_LEGEND
100
AcDbText
 10
6.2
 20
82.01030836956005
 30
0.0
 40
0.744
  1
Right support
100
AcDbText
  0
TEXT
  5
BA
330
17
100
AcDbEntity
  8
POINT_LEGEND
100
AcDbText
 10
32.24
 20
82.01030836956005
 30
0.0
 40
0.744
  1
62.00
100
AcDbText
  0
TEXT
  5
BB
330
17
100
AcDbEntity
  8
POINT_LEGEND
100
AcDbText
 10
47.12
 20
82.01030836956005
 30
0.0
 40
0.744
  1
110.25
100
AcDbText
  0
TEXT
  5
BC
330
17
100
AcDbEntity
  8
POINT_LEGEND
100
AcDbText
 10
0.0
 20
80.74550836956006
 30
0.0
 40
0.744
  1
C
100
AcDbText
  0
TEXT
  5
BD
330
17
100
AcDbEntity
  8
POINT_LEGEND
100
AcDbText
 10
6.2
 20
80.74550836956006
 30
0.0
 40
0.744
  1
Left attachment
100
AcDbText
  0
TEXT
  5
BE
330
17
100
AcDbEntity
  8
POINT_LEGEND
100
AcDbText
 10
32.24
 20
80.74550836956006
 30
0.0
 40
0.744
  1
1.96
100
AcDbText
  0
TEXT
  5
BF
330
17
100
AcDbEntity
  8
POINT_LEGEND
100
AcDbText
 10
47.12
 20
80.74550836956006
 30
0.0
 40
0.744
  1
99.58
100
AcDbText
  0
TEXT
  5
C0
330
17
100
AcDbEntity
  8
POINT_LEGEND
100
AcDbText
 10
0.0
 20
79.48070836956005
 30
0.0
 40
0.744
  1
D
100
AcDbText
  0
TEXT
  5
C1
330
17
100
AcDbEntity
  8
POINT_LEGEND
100
AcDbText
 10
6.2
 20
79.48070836956005
 30
0.0
 40
0.744
  1
Right attachment
100
AcDbText
  0
TEXT
  5
C2
330
17
100
AcDbEntity
  8
POINT_LEGEND
100
AcDbText
 10
32.24
 20
79.48070836956005
 30
0.0
 40
0.744
  1
60.25
100
AcDbText
  0
TEXT
  5
C3
330
17
100
AcDbEntity
  8
POINT_LEGEND
100
AcDbText
 10
47.12
 20
79.48070836956005
 30
0.0
 40
0.744
  1
109.28
100
AcDbText
  0
TEXT
  5
C4
330
17
100
AcDbEntity
  8
POINT_LEGEND
100
AcDbText
 10
0.0
 20
78.21590836956005
 30
0.0
 40
0.744
  1
V
100
AcDbText
  0
TEXT
  5
C5
330
17
100
AcDbEntity
  8
POINT_LEGEND
100
AcDbText
 10
6.2
 20
78.21590836956005
 30
0.0
 40
0.744
  1
Actual catenary vertex
100
AcDbText
  0
TEXT
  5
C6
330
17
100
AcDbEntity
  8
POINT_LEGEND
100
AcDbText
 10
32.24
 20
78.21590836956005
 30
0.0
 40
0.744
  1
8.63
100
AcDbText
  0
TEXT
  5
C7
330
17
100
AcDbEntity
  8
POINT_LEGEND
100
AcDbText
 10
47.12
 20
78.21590836956005
 30
0.0
 40
0.744
  1
99.42
100
AcDbText
  0
TEXT
  5
C8
330
17
100
AcDbEntity
  8
POINT_LEGEND
100
AcDbText
 10
0.0
 20
76.95110836956005
 30
0.0
 40
0.744
  1
S
100
AcDbText
  0
TEXT
  5
C9
330
17
100
AcDbEntity
  8
POINT_LEGEND
100
AcDbText
 10
6.2
 20
76.95110836956005
 30
0.0
 40
0.744
  1
Actual maximum-sag point
100
AcDbText
  0
TEXT
  5
CA
330
17
100
AcDbEntity
  8
POINT_LEGEND
100
AcDbText
 10
32.24
 20
76.95110836956005
 30
0.0
 40
0.744
  1
31.12
100
AcDbText
  0
TEXT
  5
CB
330
17
100
AcDbEntity
  8
POINT_LEGEND
100
AcDbText
 10
47.12
 20
76.95110836956005
 30
0.0
 40
0.744
  1
101.28
100
AcDbText
  0
TEXT
  5
CC
330
17
100
AcDbEntity
  8
POINT_LEGEND
100
AcDbText
 10
0.0
 20
75.68630836956005
 30
0.0
 40
0.744
  1
P
100
AcDbText
  0
TEXT
  5
CD
330
17
100
AcDbEntity
  8
POINT_LEGEND
100
AcDbText
 10
6.2
 20
75.68630836956005
 30
0.0
 40
0.744
  1
A-B chord point above S
100
AcDbText
  0
TEXT
  5
CE
330
17
100
AcDbEntity
  8
POINT_LEGEND
100
AcDbText
 10
32.24
 20
75.68630836956005
 30
0.0
 40
0.744
  1
31.12
100
AcDbText
  0
TEXT
  5
CF
330
17
100
AcDbEntity
  8
POINT_LEGEND
100
AcDbText
 10
47.12
 20
75.68630836956005
 30
0.0
 40
0.744
  1
105.15
100
AcDbText
  0
TEXT
  5
D0
330
17
100
AcDbEntity
  8
POINT_LEGEND
100
AcDbText
 10
0.0
 20
74.42150836956006
 30
0.0
 40
0.744
  1
V_i
100
AcDbText
  0
TEXT
  5
D1
330
17
100
AcDbEntity
  8
POINT_LEGEND
100
AcDbText
 10
6.2
 20
74.42150836956006
 30
0.0
 40
0.744
  1
Idealized catenary vertex
100
AcDbText
  0
TEXT
  5
D2
330
17
100
AcDbEntity
  8
POINT_LEGEND
100
AcDbText
 10
32.24
 20
74.42150836956006
 30
0.0
 40
0.744
  1
10.39
100
AcDbText
  0
TEXT
  5
D3
330
17
100
AcDbEntity
  8
POINT_LEGEND
100
AcDbText
 10
47.12
 20
74.42150836956006
 30
0.0
 40
0.744
  1
99.57
100
AcDbText
  0
TEXT
  5
D4
330
17
100
AcDbEntity
  8
POINT_LEGEND
100
AcDbText
 10
0.0
 20
73.15670836956005
 30
0.0
 40
0.744
  1
S_i
100
AcDbText
  0
TEXT
  5
D5
330
17
100
AcDbEntity
  8
POINT_LEGEND
100
AcDbText
 10
6.2
 20
73.15670836956005
 30
0.0
 40
0.744
  1
Idealized maximum-sag point
100
AcDbText
  0
TEXT
  5
D6
330
17
100
AcDbEntity
  8
POINT_LEGEND
100
AcDbText
 10
32.24
 20
73.15670836956005
 30
0.0
 40
0.744
  1
31.21
100
AcDbText
  0
TEXT
  5
D7
330
17
100
AcDbEntity
  8
POINT_LEGEND
100
AcDbText
 10
47.12
 20
73.15670836956005
 30
0.0
 40
0.744
  1
101.29
100
AcDbText
  0
TEXT
  5
D8
330
17
100
AcDbEntity
  8
POINT_LEGEND
100
AcDbText
 10
0.0
 20
71.89190836956006
 30
0.0
 40
0.744
  1
P_i
100
AcDbText
  0
TEXT
  5
D9
330
17
100
AcDbEntity
  8
POINT_LEGEND
100
AcDbText
 10
6.2
 20
71.89190836956006
 30
0.0
 40
0.744
  1
A-B chord point above S_i
100
AcDbText
  0
TEXT
  5
DA
330
17
100
AcDbEntity
  8
POINT_LEGEND
100
AcDbText
 10
32.24
 20
71.89190836956006
 30
0.0
 40
0.744
  1
31.21
100
AcDbText
  0
TEXT
  5
DB
330
17
100
AcDbEntity
  8
POINT_LEGEND
100
AcDbText
 10
47.12
 20
71.89190836956006
 30
0.0
 40
0.744
  1
105.16
100
AcDbText
  0
ENDSEC
  0
SECTION
  2
OBJECTS
  0
DICTIONARY
  5
A
330
0
100
AcDbDictionary
281
1
  3
ACAD_COLOR
350
B
  3
ACAD_GROUP
350
C
  3
ACAD_LAYOUT
350
D
  3
ACAD_MATERIAL
350
E
  3
ACAD_MLEADERSTYLE
350
F
  3
ACAD_MLINESTYLE
350
10
  3
ACAD_PLOTSETTINGS
350
11
  3
ACAD_PLOTSTYLENAME
350
12
  3
ACAD_SCALELIST
350
14
  3
ACAD_TABLESTYLE
350
15
  3
ACAD_VISUALSTYLE
350
16
  3
EZDXF_META
350
2D
  0
DICTIONARY
  5
B
330
A
100
AcDbDictionary
281
1
  0
DICTIONARY
  5
C
330
A
100
AcDbDictionary
281
1
  0
DICTIONARY
  5
D
330
A
100
AcDbDictionary
281
1
  3
Model
350
1A
  3
Layout1
350
1E
  0
DICTIONARY
  5
E
330
A
100
AcDbDictionary
281
1
  3
ByBlock
350
1F
  3
ByLayer
350
20
  3
Global
350
21
  0
DICTIONARY
  5
F
330
A
100
AcDbDictionary
281
1
  3
Standard
350
2C
  0
DICTIONARY
  5
10
330
A
100
AcDbDictionary
281
1
  3
Standard
350
22
  0
DICTIONARY
  5
11
330
A
100
AcDbDictionary
281
1
  0
ACDBDICTIONARYWDFLT
  5
12
330
A
100
AcDbDictionary
281
1
  3
Normal
350
13
100
AcDbDictionaryWithDefault
340
13
  0
ACDBPLACEHOLDER
  5
13
330
12
  0
DICTIONARY
  5
14
330
A
100
AcDbDictionary
281
1
  0
DICTIONARY
  5
15
330
A
100
AcDbDictionary
281
1
  0
DICTIONARY
  5
16
330
A
100
AcDbDictionary
281
1
  3
2dWireframe
350
5A
  3
Basic
350
5B
  3
Brighten
350
5C
  3
ColorChange
350
5D
  3
Conceptual
350
5E
  3
Dim
350
5F
  3
EdgeColorOff
350
60
  3
Facepattern
350
61
  3
Flat
350
62
  3
FlatWithEdges
350
63
  3
Gouraud
350
64
  3
GouraudWithEdges
350
65
  3
Hidden
350
66
  3
JitterOff
350
67
  3
Linepattern
350
68
  3
Modeling
350
69
  3
OverhangOff
350
6A
  3
Realistic
350
6B
  3
Shaded
350
6C
  3
Shaded with edges
350
6D
  3
Shades of Gray
350
6E
  3
Sketchy
350
6F
  3
Thicken
350
70
  3
Wireframe
350
71
  3
X-Ray
350
72
  0
LAYOUT
  5
1A
330
D
100
AcDbPlotSettings
  1

  4
A3
  6

 40
7.5
 41
20.0
 42
7.5
 43
20.0
 44
420.0
 45
297.0
 46
0.0
 47
0.0
 48
0.0
 49
0.0
140
0.0
141
0.0
142
1.0
143
1.0
 70
1024
 72
1
 73
0
 74
5
  7

 75
16
 76
0
 77
2
 78
300
147
1.0
148
0.0
149
0.0
100
AcDbLayout
  1
Model
 70
1
 71
0
 10
0.0
 20
0.0
 11
420.0
 21
297.0
 12
0.0
 22
0.0
 32
0.0
 14
1e+20
 24
1e+20
 34
1e+20
 15
-1e+20
 25
-1e+20
 35
-1e+20
146
0.0
 13
0.0
 23
0.0
 33
0.0
 16
1.0
 26
0.0
 36
0.0
 17
0.0
 27
1.0
 37
0.0
 76
1
330
17
  0
LAYOUT
  5
1E
330
D
100
AcDbPlotSettings
  1

  4
A3
  6

 40
7.5
 41
20.0
 42
7.5
 43
20.0
 44
420.0
 45
297.0
 46
0.0
 47
0.0
 48
0.0
 49
0.0
140
0.0
141
0.0
142
1.0
143
1.0
 70
0
 72
1
 73
0
 74
5
  7

 75
16
 76
0
 77
2
 78
300
147
1.0
148
0.0
149
0.0
100
AcDbLayout
  1
Layout1
 70
1
 71
1
 10
0.0
 20
0.0
 11
420.0
 21
297.0
 12
0.0
 22
0.0
 32
0.0
 14
1e+20
 24
1e+20
 34
1e+20
 15
-1e+20
 25
-1e+20
 35
-1e+20
146
0.0
 13
0.0
 23
0.0
 33
0.0
 16
1.0
 26
0.0
 36
0.0
 17
0.0
 27
1.0
 37
0.0
 76
1
330
1B
  0
MATERIAL
  5
1F
102
{ACAD_REACTORS
330
E
102
}
330
E
100
AcDbMaterial
  1
ByBlock
  2

 70
0
 40
1.0
 71
1
 41
1.0
 91
-1023410177
 42
1.0
 72
1
  3

 73
1
 74
1
 75
1
 44
0.5
 73
0
 45
1.0
 46
1.0
 77
1
  4

 78
1
 79
1
170
1
 48
1.0
171
1
  6

172
1
173
1
174
1
140
1.0
141
1.0
175
1
  7

176
1
177
1
178
1
143
1.0
179
1
  8

270
1
271
1
272
1
145
1.0
146
1.0
273
1
  9

274
1
275
1
276
1
 42
1.0
 72
1
  3

 73
1
 74
1
 75
1
 94
63
  0
MATERIAL
  5
20
102
{ACAD_REACTORS
330
E
102
}
330
E
100
AcDbMaterial
  1
ByLayer
  2

 70
0
 40
1.0
 71
1
 41
1.0
 91
-1023410177
 42
1.0
 72
1
  3

 73
1
 74
1
 75
1
 44
0.5
 73
0
 45
1.0
 46
1.0
 77
1
  4

 78
1
 79
1
170
1
 48
1.0
171
1
  6

172
1
173
1
174
1
140
1.0
141
1.0
175
1
  7

176
1
177
1
178
1
143
1.0
179
1
  8

270
1
271
1
272
1
145
1.0
146
1.0
273
1
  9

274
1
275
1
276
1
 42
1.0
 72
1
  3

 73
1
 74
1
 75
1
 94
63
  0
MATERIAL
  5
21
102
{ACAD_REACTORS
330
E
102
}
330
E
100
AcDbMaterial
  1
Global
  2

 70
0
 40
1.0
 71
1
 41
1.0
 91
-1023410177
 42
1.0
 72
1
  3

 73
1
 74
1
 75
1
 44
0.5
 73
0
 45
1.0
 46
1.0
 77
1
  4

 78
1
 79
1
170
1
 48
1.0
171
1
  6

172
1
173
1
174
1
140
1.0
141
1.0
175
1
  7

176
1
177
1
178
1
143
1.0
179
1
  8

270
1
271
1
272
1
145
1.0
146
1.0
273
1
  9

274
1
275
1
276
1
 42
1.0
 72
1
  3

 73
1
 74
1
 75
1
 94
63
  0
MLINESTYLE
  5
22
102
{ACAD_REACTORS
330
10
102
}
330
10
100
AcDbMlineStyle
  2
Standard
 70
0
  3

 62
256
 51
90.0
 52
90.0
 71
2
 49
0.5
 62
256
  6
BYLAYER
 49
-0.5
 62
256
  6
BYLAYER
  0
MLEADERSTYLE
  5
2C
102
{ACAD_REACTORS
330
F
102
}
330
F
100
AcDbMLeaderStyle
179
2
170
2
171
1
172
0
 90
2
 40
0.0
 41
0.0
173
1
 91
-1056964608
 92
-2
290
1
 42
2.0
291
1
 43
8.0
  3
Standard
 44
4.0
300

342
29
174
1
175
1
176
0
178
1
 93
-1056964608
 45
4.0
292
0
297
0
 46
4.0
 94
-1056964608
 47
1.0
 49
1.0
140
1.0
294
1
141
0.0
177
0
142
1.0
295
0
296
0
143
3.75
271
0
272
9
273
9
  0
DICTIONARY
  5
2D
330
A
100
AcDbDictionary
280
1
281
1
  3
CREATED_BY_EZDXF
350
2E
  3
WRITTEN_BY_EZDXF
350
DE
  0
DICTIONARYVAR
  5
2E
330
2D
100
DictionaryVariables
280
0
  1
1.4.4 @ 2026-08-12T10:27:34.462692+00:00
  0
VISUALSTYLE
  5
5A
102
{ACAD_REACTORS
330
16
102
}
330
16
100
AcDbVisualStyle
  2
2dWireframe
 70
4
 90
0
 40
0.6
 62
7
290
0
291
0
  0
VISUALSTYLE
  5
5B
102
{ACAD_REACTORS
330
16
102
}
330
16
100
AcDbVisualStyle
  2
Basic
 70
7
 90
1
 40
0.6
 62
7
290
0
291
1
  0
VISUALSTYLE
  5
5C
102
{ACAD_REACTORS
330
16
102
}
330
16
100
AcDbVisualStyle
  2
Brighten
 70
12
 90
2
 40
0.6
 62
7
290
0
291
1
  0
VISUALSTYLE
  5
5D
102
{ACAD_REACTORS
330
16
102
}
330
16
100
AcDbVisualStyle
  2
ColorChange
 70
16
 90
2
 40
0.6
 62
8
290
0
291
1
  0
VISUALSTYLE
  5
5E
102
{ACAD_REACTORS
330
16
102
}
330
16
100
AcDbVisualStyle
  2
Conceptual
 70
9
 90
3
 40
0.6
 62
7
290
0
291
0
  0
VISUALSTYLE
  5
5F
102
{ACAD_REACTORS
330
16
102
}
330
16
100
AcDbVisualStyle
  2
Dim
 70
11
 90
2
 40
0.6
 62
7
290
0
291
1
  0
VISUALSTYLE
  5
60
102
{ACAD_REACTORS
330
16
102
}
330
16
100
AcDbVisualStyle
  2
EdgeColorOff
 70
22
 90
2
 40
0.6
 62
7
290
0
291
1
  0
VISUALSTYLE
  5
61
102
{ACAD_REACTORS
330
16
102
}
330
16
100
AcDbVisualStyle
  2
Facepattern
 70
15
 90
2
 40
0.6
 62
7
290
0
291
1
  0
VISUALSTYLE
  5
62
102
{ACAD_REACTORS
330
16
102
}
330
16
100
AcDbVisualStyle
  2
Flat
 70
0
 90
2
 40
0.6
 62
7
290
0
291
1
  0
VISUALSTYLE
  5
63
102
{ACAD_REACTORS
330
16
102
}
330
16
100
AcDbVisualStyle
  2
FlatWithEdges
 70
1
 90
2
 40
0.6
 62
7
290
0
291
1
  0
VISUALSTYLE
  5
64
102
{ACAD_REACTORS
330
16
102
}
330
16
100
AcDbVisualStyle
  2
Gouraud
 70
2
 90
2
 40
0.6
 62
7
290
0
291
1
  0
VISUALSTYLE
  5
65
102
{ACAD_REACTORS
330
16
102
}
330
16
100
AcDbVisualStyle
  2
GouraudWithEdges
 70
3
 90
2
 40
0.6
 62
7
290
0
291
1
  0
VISUALSTYLE
  5
66
102
{ACAD_REACTORS
330
16
102
}
330
16
100
AcDbVisualStyle
  2
Hidden
 70
6
 90
1
 40
0.6
 62
7
290
0
291
0
  0
VISUALSTYLE
  5
67
102
{ACAD_REACTORS
330
16
102
}
330
16
100
AcDbVisualStyle
  2
JitterOff
 70
20
 90
2
 40
0.6
 62
7
290
0
291
1
  0
VISUALSTYLE
  5
68
102
{ACAD_REACTORS
330
16
102
}
330
16
100
AcDbVisualStyle
  2
Linepattern
 70
14
 90
2
 40
0.6
 62
7
290
0
291
1
  0
VISUALSTYLE
  5
69
102
{ACAD_REACTORS
330
16
102
}
330
16
100
AcDbVisualStyle
  2
Modeling
 70
10
 90
2
 40
0.6
 62
7
290
0
291
0
  0
VISUALSTYLE
  5
6A
102
{ACAD_REACTORS
330
16
102
}
330
16
100
AcDbVisualStyle
  2
OverhangOff
 70
21
 90
2
 40
0.6
 62
7
290
0
291
1
  0
VISUALSTYLE
  5
6B
102
{ACAD_REACTORS
330
16
102
}
330
16
100
AcDbVisualStyle
  2
Realistic
 70
8
 90
2
 40
0.6
 62
7
290
0
291
0
  0
VISUALSTYLE
  5
6C
102
{ACAD_REACTORS
330
16
102
}
330
16
100
AcDbVisualStyle
  2
Shaded
 70
27
 90
2
 40
0.6
 62
7
290
0
291
0
  0
VISUALSTYLE
  5
6D
102
{ACAD_REACTORS
330
16
102
}
330
16
100
AcDbVisualStyle
  2
Shaded with edges
 70
26
 90
2
 40
0.6
 62
7
290
0
291
0
  0
VISUALSTYLE
  5
6E
102
{ACAD_REACTORS
330
16
102
}
330
16
100
AcDbVisualStyle
  2
Shades of Gray
 70
23
 90
2
 40
0.6
 62
7
290
0
291
0
  0
VISUALSTYLE
  5
6F
102
{ACAD_REACTORS
330
16
102
}
330
16
100
AcDbVisualStyle
  2
Sketchy
 70
24
 90
1
 40
0.6
 62
7
290
0
291
0
  0
VISUALSTYLE
  5
70
102
{ACAD_REACTORS
330
16
102
}
330
16
100
AcDbVisualStyle
  2
Thicken
 70
13
 90
2
 40
0.6
 62
7
290
0
291
1
  0
VISUALSTYLE
  5
71
102
{ACAD_REACTORS
330
16
102
}
330
16
100
AcDbVisualStyle
  2
Wireframe
 70
5
 90
0
 40
0.6
 62
7
290
0
291
0
  0
VISUALSTYLE
  5
72
102
{ACAD_REACTORS
330
16
102
}
330
16
100
AcDbVisualStyle
  2
X-Ray
 70
25
 90
2
 40
0.5
 62
7
290
0
291
0
  0
DICTIONARYVAR
  5
DE
330
2D
100
DictionaryVariables
280
0
  1
1.4.4 @ 2026-08-12T10:27:34.487706+00:00
  0
ENDSEC
  0
EOF
